<mxfile host="app.diagrams.net" modified="2024-07-17T08:44:11.953Z" agent="Mozilla/5.0 (Windows NT 10.0; Win64; x64) AppleWebKit/537.36 (KHTML, like Gecko) Chrome/126.0.0.0 Safari/537.36 Edg/126.0.0.0" etag="KxAcuMExiGx5XuCvCPpD" version="24.6.5" type="device">
  <diagram name="Page-1" id="NPOubh_fz8QGUepSvt1U">
    <mxGraphModel dx="2058" dy="665" grid="1" gridSize="10" guides="1" tooltips="1" connect="1" arrows="1" fold="1" page="1" pageScale="1" pageWidth="827" pageHeight="1169" math="0" shadow="0">
      <root>
        <mxCell id="0" />
        <mxCell id="1" parent="0" />
        <mxCell id="Rk6XDNR9MFA3IbCtF0Jj-23" value="" style="rounded=0;whiteSpace=wrap;html=1;" vertex="1" parent="1">
          <mxGeometry x="-195" width="975" height="450" as="geometry" />
        </mxCell>
        <mxCell id="YrypmwiNXpWc2q6fOLhZ-14" value="" style="rounded=0;whiteSpace=wrap;html=1;" parent="1" vertex="1">
          <mxGeometry x="-179.62" y="30" width="939.62" height="400" as="geometry" />
        </mxCell>
        <mxCell id="YrypmwiNXpWc2q6fOLhZ-5" style="edgeStyle=orthogonalEdgeStyle;rounded=0;orthogonalLoop=1;jettySize=auto;html=1;exitX=1;exitY=0.5;exitDx=0;exitDy=0;exitPerimeter=0;" parent="1" edge="1">
          <mxGeometry relative="1" as="geometry">
            <mxPoint x="130" y="160" as="sourcePoint" />
            <mxPoint x="414" y="163" as="targetPoint" />
          </mxGeometry>
        </mxCell>
        <mxCell id="YrypmwiNXpWc2q6fOLhZ-2" value="&lt;div&gt;&lt;b&gt;File Directory&lt;/b&gt;&lt;/div&gt;&lt;div&gt;&lt;b&gt;(Staging area)&lt;/b&gt;&lt;br&gt;&lt;/div&gt;" style="text;html=1;align=center;verticalAlign=middle;resizable=0;points=[];autosize=1;strokeColor=none;fillColor=none;" parent="1" vertex="1">
          <mxGeometry x="50" y="210" width="100" height="40" as="geometry" />
        </mxCell>
        <mxCell id="YrypmwiNXpWc2q6fOLhZ-9" style="edgeStyle=orthogonalEdgeStyle;rounded=0;orthogonalLoop=1;jettySize=auto;html=1;" parent="1" edge="1">
          <mxGeometry relative="1" as="geometry">
            <mxPoint x="670" y="197" as="targetPoint" />
            <mxPoint x="444" y="197" as="sourcePoint" />
          </mxGeometry>
        </mxCell>
        <mxCell id="YrypmwiNXpWc2q6fOLhZ-4" value="&lt;div&gt;&lt;b&gt;File Directory&lt;/b&gt;&lt;/div&gt;&lt;div&gt;&lt;b&gt;(output directory)&lt;/b&gt;&lt;/div&gt;" style="text;html=1;align=center;verticalAlign=middle;resizable=0;points=[];autosize=1;strokeColor=none;fillColor=none;" parent="1" vertex="1">
          <mxGeometry x="354" y="232.5" width="120" height="40" as="geometry" />
        </mxCell>
        <mxCell id="YrypmwiNXpWc2q6fOLhZ-6" value="Python" style="text;html=1;align=center;verticalAlign=middle;resizable=0;points=[];autosize=1;strokeColor=none;fillColor=none;" parent="1" vertex="1">
          <mxGeometry x="180" y="128" width="60" height="30" as="geometry" />
        </mxCell>
        <mxCell id="YrypmwiNXpWc2q6fOLhZ-7" value="" style="shape=image;html=1;verticalAlign=top;verticalLabelPosition=bottom;labelBackgroundColor=#ffffff;imageAspect=0;aspect=fixed;image=https://cdn1.iconfinder.com/data/icons/ionicons-fill-vol-2/512/logo-python-128.png" parent="1" vertex="1">
          <mxGeometry x="170" y="133" width="20" height="20" as="geometry" />
        </mxCell>
        <mxCell id="YrypmwiNXpWc2q6fOLhZ-12" value="" style="image;aspect=fixed;html=1;points=[];align=center;fontSize=12;image=img/lib/azure2/databases/Azure_Database_PostgreSQL_Server.svg;" parent="1" vertex="1">
          <mxGeometry x="670" y="165" width="63.75" height="85" as="geometry" />
        </mxCell>
        <mxCell id="YrypmwiNXpWc2q6fOLhZ-13" value="&lt;b&gt;Data Warehouse&lt;/b&gt;" style="text;html=1;align=center;verticalAlign=middle;resizable=0;points=[];autosize=1;strokeColor=none;fillColor=none;" parent="1" vertex="1">
          <mxGeometry x="640" y="248" width="120" height="30" as="geometry" />
        </mxCell>
        <mxCell id="YrypmwiNXpWc2q6fOLhZ-15" value="" style="shape=image;html=1;verticalAlign=top;verticalLabelPosition=bottom;labelBackgroundColor=#ffffff;imageAspect=0;aspect=fixed;image=https://cdn4.iconfinder.com/data/icons/socialcones/508/Github-128.png" parent="1" vertex="1">
          <mxGeometry x="725" y="40" width="35" height="35" as="geometry" />
        </mxCell>
        <mxCell id="YrypmwiNXpWc2q6fOLhZ-17" value="" style="shape=image;verticalLabelPosition=bottom;labelBackgroundColor=default;verticalAlign=top;aspect=fixed;imageAspect=0;image=data:image/jpeg,/9j/4AAQSkZJRgABAQAAAQABAAD/4QAYRXhpZgAASUkqAAgAAAAAAAAAAAAAAP/hAytodHRwOi8vbnMuYWRvYmUuY29tL3hhcC8xLjAvADw/eHBhY2tldCBiZWdpbj0i77u/IiBpZD0iVzVNME1wQ2VoaUh6cmVTek5UY3prYzlkIj8+IDx4OnhtcG1ldGEgeG1sbnM6eD0iYWRvYmU6bnM6bWV0YS8iIHg6eG1wdGs9IkFkb2JlIFhNUCBDb3JlIDUuMy1jMDExIDY2LjE0NTY2MSwgMjAxMi8wMi8wNi0xNDo1NjoyNyAgICAgICAgIj4gPHJkZjpSREYgeG1sbnM6cmRmPSJodHRwOi8vd3d3LnczLm9yZy8xOTk5LzAyLzIyLXJkZi1zeW50YXgtbnMjIj4gPHJkZjpEZXNjcmlwdGlvbiByZGY6YWJvdXQ9IiIgeG1sbnM6eG1wPSJodHRwOi8vbnMuYWRvYmUuY29tL3hhcC8xLjAvIiB4bWxuczp4bXBNTT0iaHR0cDovL25zLmFkb2JlLmNvbS94YXAvMS4wL21tLyIgeG1sbnM6c3RSZWY9Imh0dHA6Ly9ucy5hZG9iZS5jb20veGFwLzEuMC9zVHlwZS9SZXNvdXJjZVJlZiMiIHhtcDpDcmVhdG9yVG9vbD0iQWRvYmUgUGhvdG9zaG9wIENTNiAoV2luZG93cykiIHhtcE1NOkluc3RhbmNlSUQ9InhtcC5paWQ6Nzg4QTJBMjVEMDI1MTFFN0EwQUVDODc5QjYyQkFCMUQiIHhtcE1NOkRvY3VtZW50SUQ9InhtcC5kaWQ6Nzg4QTJBMjZEMDI1MTFFN0EwQUVDODc5QjYyQkFCMUQiPiA8eG1wTU06RGVyaXZlZEZyb20gc3RSZWY6aW5zdGFuY2VJRD0ieG1wLmlpZDo3ODhBMkEyM0QwMjUxMUU3QTBBRUM4NzlCNjJCQUIxRCIgc3RSZWY6ZG9jdW1lbnRJRD0ieG1wLmRpZDo3ODhBMkEyNEQwMjUxMUU3QTBBRUM4NzlCNjJCQUIxRCIvPiA8L3JkZjpEZXNjcmlwdGlvbj4gPC9yZGY6UkRGPiA8L3g6eG1wbWV0YT4gPD94cGFja2V0IGVuZD0iciI/Pv/bAEMAAwICAgICAwICAgMDAwMEBgQEBAQECAYGBQYJCAoKCQgJCQoMDwwKCw4LCQkNEQ0ODxAQERAKDBITEhATDxAQEP/bAEMBAwMDBAMECAQECBALCQsQEBAQEBAQEBAQEBAQEBAQEBAQEBAQEBAQEBAQEBAQEBAQEBAQEBAQEBAQEBAQEBAQEP/AABEIA4QDhAMBEQACEQEDEQH/xAAeAAEBAQEAAwEBAQEAAAAAAAAABQYJAgcICgQDAf/EAFAQAAECAgUICAQDBgQGAQMDBQABAgMFBAYRFYIHITFEZKLB4QgJEhMyQVGRIjVjgRRCYThDUnFysRZ2tNEjM2KEhaFTF5KyJXODJFSjs/D/xAAWAQEBAQAAAAAAAAAAAAAAAAAAAQL/xAAXEQEBAQEAAAAAAAAAAAAAAAAAAREh/9oADAMBAAIRAxEAPwDqmAAkT7V8XACQAA1wACRPtXxcAJAADXAAJE+1fFwAkAANcAAkT7V8XACQAA1wACRPtXxcAJAADXAAJE+1fFwAkAANcAAkT7V8XACQAA1wACRPtXxcAJAADXAAJE+1fFwAkAANcAAkT7V8XACQAA1wAD1bl2y4ZLMiEjgT7KbXGgyaC5HrBgvd26RSFSzNChNte9f5JZ62Ac8MsPW6TGLFjyzIfUCDAgpa1k1ny9t7v+ptHhqiNxPX+RnVx8mV66aXSfyhRIqz3LBPIECKuejS2KlBgonp2YKNt+6qNXHqaZ1nrLOoro04rDM6dEctqupNLiRVVf5uVSK/xoM8nUriJFls4p1EemdHQKQ+GqfdqoB7Pqb0t+kpUJ0JKuZZqzshQV+GBSqY6lwbPTsRu02z7FTH1Jkl62/KDJosGgZY6ky+sNEzNfT5V/8A0lLRPVYa2w3r+idgamPvvIh0oci3SDoHf5Oq3QI9PYztx5VSv+BToHr2oTs6p/1N7Tf1Naj6FAASJ9q+LgBIAAa4ABIn2r4uAEgABrgAEifavi4ASAAGuAASJ9q+LgBIAAa4ABIn2r4uAEgABrgAEifavi4ASAAGuAASJ9q+LgBIAAa4ABIn2r4uAEgABrgAEifavi4ASAAGuAASJ9q+LgBIAAa4AAAAAJE+1fFwAkAANcAAkT7V8XACQAA1wACRPtXxcAJAADXAAJE+1fFwAkAANcAAkT7V8XACQAA1wACRPtXxcAJAADXAAJE+1fFwAkAANcAAkT7V8XACQAA1wACRPtXxcAJAADXAAJE+1fFwAkAANcB8L9NrrJau5DotNyZ5Hloc/ryxFhUumO/4lClDvR1n/NjJ/BbY3838JLVkciK+ZQq7ZT6y0qt+UCs1Pns3pju1FpVMiq91nk1qaGtTya1ERPJDLTPAAAAAAA/tkk8nNW5rRp5V6a0uWzGhxEi0elUWM6FFhPTQrXNVFRQOpHQq60VlYKTQMlvSUp0Gj0+KraPL61KiQ4Ud2hrKWiZmOXyipY1V8SJpNSs2OlLHsisbFhPa9j0RzXNW1FRdCopUSp9q+LgBIAAa4ABIn2r4uAEgABrgAEifavi4ASAAGuAASJ9q+LgBIAAa4ABIn2r4uAEgABrgAEifavi4ASAAGuAASJ9q+LgBIAAa4ABIn2r4uAEgABrgAEifavi4ASAAGuAASJ9q+LgBIAAa4AAAkX9se/yAX9se/wAgHzv6Pc4u1b7egC4ds3OYC4ds3OYC/tj3+QC/tj3+QD539HucXat9vQBcO2bnMBcO2bnMBf2x7/IBf2x7/IB87+j3OLtW+3oAuHbNzmAuHbNzmAv7Y9/kAv7Y9/kA+d/R7nF2rfb0AXDtm5zAXDtm5zAX9se/yAX9se/yAfO/o9zi7Vvt6ALh2zc5gLh2zc5gL+2Pf5AL+2Pf5APnf0e5xdq329AFw7ZucwFw7ZucwF/bHv8AIBf2x7/IB87+j3OLtW+3oAuHbNzmAuHbNzmAv7Y9/kAv7Y9/kA+d/R7nF2rfb0AXDtm5zAXDtm5zAX9se/yAX9se/wAgHzv6Pc4u1b7egC4ds3OYC4ds3OYC/tj3+QC/tj3+QD539HucXat9vQBcO2bnMBcO2bnMDn51gHWJpUmjTDInkQmDErLFa6jzqd0eJ2klrVSx0GC5P366Fd+T+rwy1ZHJuNGi0iK+PHiviRYjle973KrnOVbVVVXSqqZaeIAAAAAAAAAB0W6vrrEaRUe78h+XCZupEhcraPI55SYvxS9VzNo8dy22wfJrl8Ghfh8NlZsdUYcSHWCG2LCe1jGIjmuavbSIjtCoubNmNI8rh2zc5gLh2zc5gL+2Pf5AL+2Pf5APnf0e5xdq329AFw7ZucwFw7ZucwF/bHv8gF/bHv8AIB87+j3OLtW+3oAuHbNzmAuHbNzmAv7Y9/kAv7Y9/kA+d/R7nF2rfb0AXDtm5zAXDtm5zAX9se/yAX9se/yAfO/o9zi7Vvt6ALh2zc5gLh2zc5gL+2Pf5AL+2Pf5APnf0e5xdq329AFw7ZucwFw7ZucwF/bHv8gF/bHv8gHzv6Pc4u1b7egC4ds3OYC4ds3OYC/tj3+QC/tj3+QD539HucXat9vQBcO2bnMBcO2bnMBf2x7/ACAX9se/yAfO/o9zi7Vvt6ALh2zc5gLh2zc5gL+2Pf5AL+2Pf5APnf0e5xdq329AFw7ZucwFw7ZucwF/bHv8gF/bHv8AIBf2x7/ICQAAryHWMPECuAAyIACvIdYw8QK4ADIgAK8h1jDxArgAMiAAryHWMPECuAAyIACvIdYw8QK4ADIgAK8h1jDxArgAMiAAryHWMPECuAAyIACvIdYw8QK4ADIgAK8h1jDxArgAMiAAryHWMPECuBzt6wzrDIVQIUwyHZDpwyJWaI11Hnc7o70VssaqWOgQXJpjqmZXfk/q8MtWRyTixYseK+PHiOiRIjle971tc5y51VVXSplp4gAAAAAAAAAAAB0V6u7rBUqNSKFkPy4TdzpDSFZRpJPaQ+1Ze7Q2BHcv7lbbGuXwaF+Hw2Vmx1phxIcaG2LCiNex7Uc1zVtRyLoVF80NI8gMiAAryHWMPECuAAyIACvIdYw8QK4ADIgAK8h1jDxArgAMiAAryHWMPECuAAyIACvIdYw8QK4ADIgAK8h1jDxArgAMiAAryHWMPECuAAyIACvIdYw8QK4ADIgAK8h1jDxArgAMiAAAAAFeQ6xh4gVwAGRAAV5DrGHiBXAAZEABXkOsYeIFcABkQAFeQ6xh4gVwAGRAAV5DrGHiBXAAZEABXkOsYeIFcABkQAFeQ6xh4gVwAGRAAV5DrGHiBXAAZEABXkOsYeIFcABkQAFeQ6xh4gfAnWGdYZCqBCmGQ7IdOGRKzRGuo87ndHeitljVSx0CC5NMddCu/J/V4ZasjknFixY8V8ePFfEiRHK973uVXOcq2qqqulVMtPEAAAAAAAAAAAAAADo11eXWGxKmRJdkLy6Tlz5A9zaNIp7SX2rL1XM2jx3Lpg+TXr4NC/D4bKljrJDiQ40NsWFEa9j2o5rmrajkXQqL5oaZZMABXkOsYeIFcABkQAFeQ6xh4gVwAGRAAV5DrGHiBXAAZEABXkOsYeIFcABkQAFeQ6xh4gVwAGRAAV5DrGHiBXAAZEABXkOsYeIFcABkQAFeQ6xh4gVwAGRAAV5DrGHiBXAAZEAAA1wACRPtXxcAJAADXAAJE+1fFwAkAANcAAkT7V8XACQAA1wACRPtXxcAJAADXAAJE+1fFwAkAANcAAkT7V8XACQAA1wACRPtXxcAJAADXAAJE+1fFwAkAANcAAkT7V8XACQAA1wADnL1ifWAUapKUvIjkSnDItZey+jzudUd6K2WotiLAguTTH9XJ4P6vDLVkcm4sWLHivjx4jokSI5Xve9bXOcudVVV0qZaeIAAAAAAAAAAAAAAAAB0G6AvT6iVPiUDInlsm7nyJ6to8kndIfatAVczYEZy6YXk1y+DQvw+GypY68Q4kONDbFhPa9j0RzXNW1HIuhUXzQ0y8gJE+1fFwAkAANcAAkT7V8XACQAA1wACRPtXxcAJAADXAAJE+1fFwAkAANcAAkT7V8XACQAA1wACRPtXxcAJAADXAAJE+1fFwAkAANcAAkT7V8XACQAA1wACRPtXxcAJAADXAAAAABIn2r4uAEgABrgAEifavi4ASAAGuAASJ9q+LgBIAAa4ABIn2r4uAEgABrgAEifavi4ASAAGuAASJ9q+LgBIAAa4ABIn2r4uAEgABrgAEifavi4ASAAGuAASJ9q+LgBIAAa4Dnb1hnWGQqgQphkOyHThkSs0RrqPO53R3orZY1UsdAguTTHXQrvyf1eGWrI5JxYsWPFfHjxXxIkRyve97lVznKtqqqrpVTLTxAAAAAAAAAAAAAAAAAAADo11eXWGxKlxJdkLy6Tlz5A9W0aRT2kvtWXquZtHjuXTB8mvXwaF+Hw2VLHWSHEhxobYsJ7XseiOa5q2o5F0Ki+aGmUqfavi4ASAAGuAASJ9q+LgBIAAa4ABIn2r4uAEgABrgAEifavi4ASAAGuAASJ9q+LgBIAAa4ABIn2r4uAEgABrgAEifavi4ASAAGuAASJ9q+LgBIAAa4ABIn2r4uAEgABrgAACRf2x7/IBf2x7/IB87+j3OLtW+3oAuHbNzmAuHbNzmAv7Y9/kAv7Y9/kA+d/R7nF2rfb0AXDtm5zAXDtm5zAX9se/yAX9se/yAfO/o9zi7Vvt6ALh2zc5gLh2zc5gL+2Pf5AL+2Pf5APnf0e5xdq329AFw7ZucwFw7ZucwF/bHv8AIBf2x7/IB87+j3OLtW+3oAuHbNzmAuHbNzmAv7Y9/kAv7Y9/kA+d/R7nF2rfb0AXDtm5zAXDtm5zAX9se/yAX9se/wAgHzv6Pc4u1b7egC4ds3OYC4ds3OYC/tj3+QC/tj3+QD539HucXat9vQBcO2bnMBcO2bnMBf2x7/IBf2x7/IB87+j3OLtW+3oAuHbNzmAuHbNzmBz86wDrE0qTRphkSyIzBn+JYrXUedTujxO0ktaqWOgwVT9+uhXfk/q8MtWRybixYseK+PHiviRIjle973KrnOVbVVVXSqmWniAAAAAAAAAAAAAAAAAAAAAB0W6vrrEaRUa78h2W+ZupEhcraPIp3SYnxS9VzNo8dy22wfJrl8Ghfh8NlZsdUYcSHWCG2LCe1jGIjmuavbSIjtCoubNmNI8rh2zc5gLh2zc5gL+2Pf5AL+2Pf5APnf0e5xdq329AFw7ZucwFw7ZucwF/bHv8gF/bHv8AIB87+j3OLtW+3oAuHbNzmAuHbNzmAv7Y9/kAv7Y9/kA+d/R7nF2rfb0AXDtm5zAXDtm5zAX9se/yAX9se/yAfO/o9zi7Vvt6ALh2zc5gLh2zc5gL+2Pf5AL+2Pf5APnf0e5xdq329AFw7ZucwFw7ZucwF/bHv8gF/bHv8gHzv6Pc4u1b7egC4ds3OYC4ds3OYC/tj3+QC/tj3+QD539HucXat9vQBcO2bnMBcO2bnMBf2x7/ACAX9se/yAfO/o9zi7Vvt6ALh2zc5gLh2zc5gL+2Pf5AL+2Pf5AL+2Pf5ASAAFeQ6xh4gVwAGRAAV5DrGHiBXAAZEABXkOsYeIFcABkQAFeQ6xh4gVwAGRAAV5DrGHiBXAAZEABXkOsYeIFcABkQAFeQ6xh4gVwAGRAAV5DrGHiBXAAZEABXkOsYeIFcDnb1hnWGQqgQphkOyHThkSs0RrqPO53R3orZY1UsdAguTTHXQrvyf1eGWrI5JxYsWPFfHjxHRIkRyve962uc5c6qqrpUy08QAAAAAAAAAAAAAAAAAAAAAAADor1d3WCpUakULIflwnDnSGkKyjSOeUh9qy92hsCO5f3K22Nevg0L8PhsrNjrTDiQ40NsWFEa9j2o5rmrajkXQqL5oaR5AZEABXkOsYeIFcABkQAFeQ6xh4gVwAGRAAV5DrGHiBXAAZEABXkOsYeIFcABkQAFeQ6xh4gVwAGRAAV5DrGHiBXAAZEABXkOsYeIFcABkQAFeQ6xh4gVwAGRAAAAACvIdYw8QK4ADIgAK8h1jDxArgAMiAAryHWMPECuAAyIACvIdYw8QK4ADIgAK8h1jDxArgAMiAAryHWMPECuAAyIACvIdYw8QK4ADIgAK8h1jDxArgAMiAAryHWMPED4E6wzrDIWT+FMMhuQ6cMiVmiNdR53O6O9FbLGqljoEFyaY66Fd+T+rwy1ZHJOLFix4r48eK+JEiOV73vcquc5VtVVVdKqZaeIAAAAAAAAAAAAAAAAAAAAAAAAAAdGury6w2JUuJLsheXScufIHubRpFPaS+1Zeq5m0eO5dMHya9fBoX4fDZUsdZIcSHGhtiwojXse1HNc1bUci6FRfNDTLJgAK8h1jDxArgAMiAAryHWMPECuAAyIACvIdYw8QK4ADIgAK8h1jDxArgAMiAAryHWMPECuAAyIACvIdYw8QK4ADIgAK8h1jDxArgAMiAAryHWMPECuAAyIAABrgAEifavi4ASAAGuAASJ9q+LgBIAAa4ABIn2r4uAEgABrgAEifavi4ASAAGuAASJ9q+LgBIAAa4ABIn2r4uAEgABrgAEifavi4ASAAGuAASJ9q+LgBIAAa4ABzm6xPrAKNUhKXkRyJzhsWsvZfR53OaO9FbLEWxFgQXJpj+rvyf1eGWrI5NRYsWPFfHjxHRIkRyve962uc5c6qqrpUy08QAAAAAAAAAAAAAAAAAAAAAAAAAAAAOg3QF6fUSp0SgZE8tk3c+RPVtHkk7pD7VoCrmbAjOXTB8muXwaF+Hw2VLHXiHEhxobYsJ7XseiOa5q2o5F0Ki+aGmXkBIn2r4uAEgABrgAEifavi4ASAAGuAASJ9q+LgBIAAa4ABIn2r4uAEgABrgAEifavi4ASAAGuAASJ9q+LgBIAAa4ABIn2r4uAEgABrgAEifavi4ASAAGuAAAAACRPtXxcAJAADXAAJE+1fFwAkAANcAAkT7V8XACQAA1wACRPtXxcAJAADXAAJE+1fFwAkAANcAAkT7V8XACQAA1wACRPtXxcAJAADXAAJE+1fFwAkAANcBzt6wzrDIWT+FMMh2Q6cMiVniNdR53O6O9FbK2qljoEFyaY6+bk8H9XhlqyOScWLFpEV8ePFfEiRHK973uVXOcq2qqqulVUy08QAAAAAAAAAAAAAAAAAAAAAAAAAAAAAADo11eXWGxKlxJdkLy6Tlz5A9zaNIp7SX2rL1XM2jx3Lpg+TXr4NC/D4bKljrJDiQ40NsWFEa9j2o5rmrajkXQqL5oaZSp9q+LgBIAAa4ABIn2r4uAEgABrgAEifavi4ASAAGuAASJ9q+LgBIAAa4ABIn2r4uAEgABrgAEifavi4ASAAGuAASJ9q+LgBIAAa4ABIn2r4uAEgABrgAACRf2x7/IBf2x7/IB87+j3OLtW+3oAuHbNzmAuHbNzmAv7Y9/kAv7Y9/kA+d/R7nF2rfb0AXDtm5zAXDtm5zAX9se/yAX9se/yAfO/o9zi7Vvt6ALh2zc5gLh2zc5gL+2Pf5AL+2Pf5APnf0e5xdq329AFw7ZucwFw7ZucwF/bHv8AIBf2x7/IB87+j3OLtW+3oAuHbNzmAuHbNzmAv7Y9/kAv7Y9/kA+d/R7nF2rfb0AXDtm5zAXDtm5zAX9se/yAX9se/wAgHzv6Pc4u1b7egC4ds3OYC4ds3OYC/tj3+QC/tj3+QD539HucXat9vQBcO2bnMBcO2bnMDN5SKLNq7VCn1UpDPqbVqYTagxaLRptQ1RY1De5LEiNRU0p9lsVbFRbFQPz9ZcsjGUHIVlBp9SMotBiMp7HujQaZndCp8JVWyPDeviR3n5otqLnMtPX5FAAAAAAAAAAAAAAAAAAAAAAAAAAAAAAAAB0V6vrrEaRUa78h+XCZupEgcraPIp3SYnxS9VzNo8dy22wfJrl8Ghfh8NlZsdUocSHWCG2LCe1jGIjmuavbSIjtCoubNmNI8rh2zc5gLh2zc5gL+2Pf5AL+2Pf5APnf0e5xdq329AFw7ZucwFw7ZucwF/bHv8gF/bHv8gHzv6Pc4u1b7egC4ds3OYC4ds3OYC/tj3+QC/tj3+QD539HucXat9vQBcO2bnMBcO2bnMBf2x7/ACAX9se/yAfO/o9zi7Vvt6ALh2zc5gLh2zc5gL+2Pf5AL+2Pf5APnf0e5xdq329AFw7ZucwFw7ZucwF/bHv8gF/bHv8AIB87+j3OLtW+3oAuHbNzmAuHbNzmAv7Y9/kAv7Y9/kA+d/R7nF2rfb0AXDtm5zAXDtm5zAX9se/yAX9se/yAX9se/wAgJAACvIdYw8QK4ADIgAK8h1jDxArgAMiAAryHWMPECuAAyIACvIdYw8QK4ADIgAK8h1jDxArgAMiAAryHWMPECuAAyIACvIdYw8QK4ADIgAK8h1jDxArgAMiB6m6SPRuqJ0lqhxapVto6UenwEdFlU1hMRY9Aj2ZnNX8zFzI5i5lT0VEVJYOIeW3IlXvIFXym1Br9LVgUqjqr6NSWIqwKbAt+GNCd+Zq+6Lai2KhGmCIoAAAAAAAAAAAAAAAAAAAAAAAAAAAAAAAAOivV3dYL/gakULIflwnDnSCkKyjSSe0h9qy92hsCO5f3K22Nevg0L8PhsrNjrTDiQ40NsWFEa9j2o5rmrajkXQqL5oaR5AZEABXkOsYeIFcABkQAFeQ6xh4gVwAGRAAV5DrGHiBXAAZEABXkOsYeIFcABkQAFeQ6xh4gVwAGRAAV5DrGHiBXAAZEABXkOsYeIFcABkQAAAAAryHWMPECuAAyIACvIdYw8QK4ADIgAK8h1jDxArgAMiAAryHWMPECuAAyIACvIdYw8QK4ADIgAK8h1jDxArgAMiAAryHWMPECuAAyIACvIdYw8QK4ADIgAPW2X7ox5P8ApQ5P6dU+uFGSjzCjp3som8JiLHl9IVFsc1fzMWxEcxczk9FRFRg4cZdchWUDo85QKbk8yhytaPS6Oqvo1JYirR6dR1X4Y0F35mr7otqLYqGWnr0igAAAAAAAAAAAAAAAAAAAAAAAAAAAAAAAA6NdXl1hsSpcSXZC8uk5c+r73No0intJfasvVczaPHcumD5Ncvg0L8PhsqWOskOJDjQ2xYT2vY9Ec1zVtRyLoVF80NMsmAAryHWMPECuAAyIACvIdYw8QK4ADIgAK8h1jDxArgAMiAAryHWMPECuAAyIACvIdYw8QK4ADIgAK8h1jDxArgAMiAAryHWMPECuAAyIAABrgAEifavi4ASAAGuAASJ9q+LgBIAAa4ABIn2r4uAEgABrgAEifavi4ASAAGuAASJ9q+LgBIAAa4ABIn2r4uAEgABrgAEifavi4ASAAGuAASJ9q+LgBIAAa4ABIn2r4uAHo/pI9G6ofSWqHGqlW2jpAp8BHRJTNobEWPQI6pmc1fzMXMjmLmVPRURUlg4h5bciVfMgVfKZUGv0tWBSoCq+jUliKsCmwFX4Y0J35mr7otqLYqGWmCCgAAAAAAAAAAAAAAAAAAAAAAAAAAAAAAAA6DdAXp9RKnRKBkTy2Tdz5C9W0eSTukPtWgKuZsCM5dMHya5fBoX4fDZUsdeIcSHGhtiwntex6I5rmrajkXQqL5oaZeQEifavi4ASAAGuAASJ9q+LgBIAAa4ABIn2r4uAEgABrgAEifavi4ASAAGuAASJ9q+LgBIAAa4ABIn2r4uAEgABrgAEifavi4ASAAGuAAAAACRPtXxcAJAADXAAJE+1fFwAkAANcAAkT7V8XACQAA1wACRPtXxcAJAADXAAJE+1fFwAkAANcAAkT7V8XACQAA1wACRPtXxcAJAADXAAJE+1fFwAkAANcAAkT7V8XACQB6m6SPRuqH0lqiRapVto6QKfAR0WVTWExFj0COqZnNX8zFzI5i5lT0VEVJYOJGXXIVlA6POUCm5PcocrdR6XR1V9GpLEVaPToCr8MaC78zV90W1FsVCNPXpFAAAAAAAAAAAAAAAAAAAAAAAAAAAAAAAAB0a6vLrDYlS4kuyF5dJy59X3q2jSKe0l9qy9VzNo8dy6YPk1y+DQvw+GypY6yQ4kONDbFhRGvY9qOa5q2o5F0Ki+aGmUqfavi4ASAAGuAASJ9q+LgBIAAa4ABIn2r4uAEgABrgAEifavi4ASAAGuAASJ9q+LgBIAAa4ABIn2r4uAEgABrgAEifavi4ASAAGuAAAJF/bHv8gF/bHv8gHzv6Pc4u1b7egC4ds3OYC4ds3OYC/tj3+QC/tj3+QD539HucXat9vQBcO2bnMBcO2bnMBf2x7/ACAX9se/yAfO/o9zi7Vvt6ALh2zc5gLh2zc5gL+2Pf5AL+2Pf5APnf0e5xdq329AFw7ZucwFw7ZucwF/bHv8gF/bHv8AIB87+j3OLtW+3oAuHbNzmAuHbNzmAv7Y9/kAv7Y9/kA+d/R7nF2rfb0AXDtm5zAXDtm5zAX9se/yAX9se/yAfO/o9zi7Vvt6ALh2zc5gLh2zc5gfEXS16zyS5E67UCoGTKSUCs0zl1MY6scSJGVYECCi/HRYbm/vlTS7OjNCoq2oktWR9RZF+kNUTLzUShV+qBSG0mh0lOzHgOiIkahx0T4oMVtnwuT2VLFS1FKjd/O/o9zi7Vvt6ALh2zc5gLh2zc5gL+2Pf5AL+2Pf5APnf0e5xdq329AFw7ZucwFw7ZucwPT/AEnMgOT/AKUOT+NU+uErSjzCjo6LKJvCsWkS+OqZnNWz4mLmRzFzOT0VEVFHDPLbkSr5kCr5TKg1+ljqPSoCq+jUliKsCmwLfhjQnfmavui2otioZaYIigAAAAAAAAAAAAAAAAAAAAAAAAAAAAAAAA6K9X11iNIqNd+Q/LhM3UiQOVtHkc7pMT4peq5m0eO5bbYPk1y+DQvw+Gys2OqUOJDrBDbFhPaxjERzXNXtpER2hUXNmzGkeVw7ZucwFw7ZucwF/bHv8gF/bHv8gHzv6Pc4u1b7egC4ds3OYC4ds3OYC/tj3+QC/tj3+QD539HucXat9vQBcO2bnMBcO2bnMBf2x7/IBf2x7/IB87+j3OLtW+3oAuHbNzmAuHbNzmAv7Y9/kAv7Y9/kA+d/R7nF2rfb0AXDtm5zAXDtm5zAX9se/wAgF/bHv8gHzv6Pc4u1b7egC4ds3OYC4ds3OYC/tj3+QC/tj3+QD539HucXat9vQBcO2bnMBcO2bnMBf2x7/IBf2x7/ACAX9se/yAkAAK8h1jDxArgAMiAAryHWMPECuAAyIACvIdYw8QK4ADIgAK8h1jDxArgAMiAAryHWMPECuAAyIACvIdYw8QK4ADIgAK8h1jDxArgc7esM6wyFUCFMMh2Q6cMiVmiNdR53O6O9FbLGqljoEFyaY/krvyf1eGWrI5JxYsWPFfHjxHRIkRyve962uc5c6qqrpUy09t9GnpLV76M9e4VaqrR3UmW0lWw5vKIj1SBToCLoX+F6Z1a/Si+qKqLUd0ejzloqJl5qJCr/AFBmbaTQ6SjWx4DlRI9DjIi9qDFb+VyeypYqWoppl7SAAZEABXkOsYeIFcABkQPU3SR6N1ROktUOLVKttHSBT4COiyqawmIsegR7Mzmr+Zi5kcxcyp6KiKksHEPLbkSr3kCr5TKg1+lqwKVR1V9GpLEVYFNgW/DGhO/M1fdFtRbFQjTBEUAAAAAAAAAAAAAAAAAAAAAAAAAAAAAAAAHRXq7usF/wNSKFkPy4TdzpBSFZRpJPaQ+1Ze7Q2BHcv7lbbGvXwaF+Hw2Vmx1phxIcaG2LCiNex7Uc1zVtRyLoVF80NI8gMiAAryHWMPECuAAyIACvIdYw8QK4ADIgAK8h1jDxArgAMiAAryHWMPECuAAyIACvIdYw8QK4ADIgAK8h1jDxArgAMiAAAAAFeQ6xh4gVwAGRAAV5DrGHiBXAAZEABXkOsYeIFcABkQAFeQ6xh4gVwAGRAAV5DrGHiBXAAZEABXkOsYeIFcABkQAFeQ6xh4gfAnWGdYZCqBCmGQ7IdOGxKzRGuo87ndHeitljVSx0CC5NMddCu/J/V4ZasjknFixY8V8ePFfEiRHK973uVXOcq2qqqulVMtPEAB7k6L3Shr/0XK/wq21SjupUspSthTiTxXqkCnwEXQv8MRLVVr0zovqiqi1HdzIflwqB0gqgUHKHk8mraVQqUnYjwHqiR6FHRPigxm/lensqWKlqKaZewAMiAAryHWMPECuAAyIAD1tl+6MeT/pQ5P6dU+uFGSjzCjp3som8JiLHl9IVFsc1fzMXMjmLmcnoqIqMHDjLrkKygdHnKBTcnmUOVrR6XR1V9GpLEVaPTqOq/DGgu/M1fdFtRbFQy09ekUAAAAAAAAAAAAAAAAAAAAAAAAAAAAAAAAHRrq8usNiVLiS7IXl0nLn1fe5tGkU9pL7Vl6rmbR47l0wfJrl8Ghfh8NlSx1khxIcaG2LCiNex7Uc1zVtRyLoVF80NMsmAAryHWMPECuAAyIACvIdYw8QK4ADIgAK8h1jDxArgAMiAAryHWMPECuAAyIACvIdYw8QK4ADIgAK8h1jDxArgAMiAAAa4ABIn2r4uAEgABrgAEifavi4ASAAGuAASJ9q+LgBIAAa4ABIn2r4uAEgABrgAEifavi4ASAAGuAASJ9q+LgBIAAa4ABzl6xPrAKNUlKXkRyJThsWsvZfR53OqO9FbLUWxFgQXJpj+rk8H9XhlqyOTcWLFjxXx48R0SJEcr3vetrnOXOqqq6VMtPEAAAAe3ejT0lq99GevcKtNVo7qTLaSrYc3lER6pAp0BF0L/C9M6tfpRfVFVFqO3eRfLRUTLzUShV+qBNG0mh0lOzHgOVEj0OOifFBit/K5PZUsVLUU0y90AAJE+1fFwAkAANcAAkT7V8XAD0f0kejdUPpLVEi1SrbR0gU+Ajokpm0JiLHoEdUzOav5mLmRzFzKnoqIqSwcQ8tuRKvmQKvdMqDX6WLR6VAVX0aksRVgU2Aq/DGhO/M1fdFtRbFQy0wQUAAAAAAAAAAAAAAAAAAAAAAAAAAAAAAAAHQboC9PqJU6JQMieWybufIXq2jySd0h9q0BVzNgRnLpg+TXL4NC/D4bKljrxDiQ40NsWFEa9j2o5rmrajkXQqL5oaZeQEifavi4ASAAGuAASJ9q+LgBIAAa4ABIn2r4uAEgABrgAEifavi4ASAAGuAASJ9q+LgBIAAa4ABIn2r4uAEgABrgAAAAAkT7V8XACQAA1wACRPtXxcAJAADXAAJE+1fFwAkAANcAAkT7V8XACQAA1wACRPtXxcAJAADXAAJE+1fFwAkAANcBzt6wzrDIVQIUwyHZDZwyJWaI11Hnc7o70VssaqWOgQXJpjqmZXfk/q8MtWRyTixYseK+PHiviRIjle973KrnOVbVVVXSqmWniAAAAAAD270aektXvoz17hVpqtHdSZbSVbDm0oiPVIFOgIuhf4XpnVr9KL6oqotR3kyH5cKgdIKoFByh5PJq2lUKlIjY8B6okehR0T4oMZv5Xp7KlipaimmW/AkT7V8XACQAA1wACRPtXxcAJAHqbpI9G6ofSWqJFqlW2jpAp9HR0WVTWExFj0COqZnNX8zFzI5i5lT0VEVJYOJGXXIVlA6POUCm5PMocrWj0ujqr6NSWIq0enUdV+GNBd+Zq+6Lai2KhGnr0igAAAAAAAAAAAAAAAAAAAAAAAAAAAAAAAA6NdXl1hsSpcSXZC8uk5c+r73No0intJfasvVczaPHcumD5Ncvg0L8PhsqWOskOJDjQ2xYURr2PajmuatqORdCovmhplKn2r4uAEgABrgAEifavi4ASAAGuAASJ9q+LgBIAAa4ABIn2r4uAEgABrgAEifavi4ASAAGuAASJ9q+LgBIAAa4AAAkX9se/wAgF/bHv8gHzv6Pc4u1b7egC4ds3OYC4ds3OYC/tj3+QC/tj3+QD539HucXat9vQBcO2bnMBcO2bnMBf2x7/IBf2x7/ACAfO/o9zi7Vvt6ALh2zc5gLh2zc5gL+2Pf5AL+2Pf5APnf0e5xdq329AFw7ZucwFw7ZucwF/bHv8gF/bHv8gHzv6Pc4u1b7egC4ds3OYC4ds3OYC/tj3+QC/tj3+QD539HucXat9vQBcO2bnMBcO2bnMDn51gHWJpUmjTDIlkRmDP8AEsVrqPOp3AidpJa1UsdBgqn79UzK78n9XhlqyOTcWLFjxXx48R8SJEcr3veqq5zlW1VVV0qplp4gAAAAAAAAPcnRe6UNf+i5X+FW2qUd1KllKVsKcSeK9UgU+Ai6F/hiJnVr0zovqiqi1HcrIv0hqiZeaiUKv1QKQ2k0Okp2Y8B0REjUOOifFBits+FyeypYqWopplu/nf0e5xdq329AFw7ZucwFw7ZucwF/bHv8gF/bHv8AIB87+j3OLtW+3oAuHbNzmAuHbNzmB6f6TmQHJ/0ocn8ap1cJWlHp9HR0WUTeFYtIl8dUzOatnxMXMjmLmcnoqIqKOGeW3IlXzIFXymVBr9LHUelQFV9GpLEVYFNgW/DGhO/M1fdFtRbFQy0wRFAAAAAAAAAAAAAAAAAAAAAAAAAAAAAAAAB0V6vrrEaRUa78h+W+ZupEgcraPI53SYnxS9VzNo8dy22wfJrl8Ghfh8NlZsdUocSHWCG2LCe1jGIjmuavbSIjtCoubNmNI8rh2zc5gLh2zc5gL+2Pf5AL+2Pf5APnf0e5xdq329AFw7ZucwFw7ZucwF/bHv8AIBf2x7/IB87+j3OLtW+3oAuHbNzmAuHbNzmAv7Y9/kAv7Y9/kA+d/R7nF2rfb0AXDtm5zAXDtm5zAX9se/yAX9se/wAgHzv6Pc4u1b7egC4ds3OYC4ds3OYC/tj3+QC/tj3+QD539HucXat9vQBcO2bnMBcO2bnMBf2x7/IBf2x7/IBf2x7/ACAkAAK8h1jDxArgAMiAAryHWMPECuAAyIACvIdYw8QK4ADIgAK8h1jDxArgAMiAAryHWMPECuAAyIACvIdYw8QK4HOzrDOsMhVAhTDIbkOnDYlZojXUedzujvRWyxqpY6BBcmmOqZld+T+rwy1ZHJSLFix4r48eI6JEiOV73vW1znLnVVVdKmWniAAAAAAAAAAAPbvRp6S1e+jPXuFWmq0d1JltJVsObymI9UgU6Ai6F/hemdWv0ovqiqi1HdHo85aKiZeaiQq/1BmbaTQqSjWx4DlRI9DjIi9qDFb+VyeypYqWoppl7SAAZEABXkOsYeIFcABkQPU3SR6N1ROktUONVKttHSBT4COiymbQ2IsegR1TM5q/mYuZHMXMqeioipLBxDy25Eq+ZAq+UyoNfpasClUdVfRqSxFWBTYFvwxoTvzNX3RbUWxUI0wRFAAAAAAAAAAAAAAAAAAAAAAAAAAAAAAAAB0V6u7rBf8AA1IoWRDLhOHOkFIVlGkk8pD7Vl7tDYEdy/uVtsa5fBoX4fDZWbHWmHEhxobYsKI17HtRzXNW1HIuhUXzQ0jyAyIACvIdYw8QK4ADIgAK8h1jDxArgAMiAAryHWMPECuAAyIACvIdYw8QK4ADIgAK8h1jDxArgAMiAAAAAFeQ6xh4gVwAGRAAV5DrGHiBXAAZEABXkOsYeIFcABkQAFeQ6xh4gVwAGRAAV5DrGHiBXAAZEABXkOsYeIHwH1hnWGQqgwphkOyGzhsSs0RrqPO53R3orZY1czoEFyaY66Fcng/q8MtWRyUixYseK+PHiviRIjle973KrnOVbVVVXSqmWniAAAAAAAAAAAAAD3J0XulDX/ouV/hVtqlHdSpZSlbCnEnivVIFPgIuhf4YiWqrXpnRfVFVFqO7uQ/LhUDpA1AoOUPJ5NW0qg0pEbHgOVEj0OOifFBjN/K9PZUsVLUU0y34GRAAV5DrGHiBXAAZEAB62y/dGPJ/0ocn9OqfXCjJR5hR072UTeExFjy+kKi2Oav5mLmRzFzOT0VEVGDhxl1yF5QOjzlApuTzKFK1o9Lo6q+jUliKsCnQFX4Y0F35mr7otqLYqGWmOklW6xVlpSUKrkhmM1pCrYkGhUV8d64WIqkV7PkfQ/6T1YoTY0ryHVsdDfnR0eguo6Kn/wDL2Spq+vQJ6XCQ+9/+i02s9EpFHt9u8GGs5POiL0nKuwX0ia5DK4NhQkte+BLXx2t/msLtA16vmslnEipTqDO5TTJfSWrY6DSoD4T0/m1yIpFfxgAAAAAAAAAAAAAAAAAAAAAAAAAAA6NdXl1hsSpcSXZC8uk5c+QPc2jSKe0l9qy9VzNo8dy6YPk1y+DQvw+GypY6yQ4kONDbFhPa9j0RzXNW1HIuhUXzQ0yyYACvIdYw8QK4ADIgAK8h1jDxArgAMiAAryHWMPECuAAyIACvIdYw8QK4ADIgAK8h1jDxArgAMiAAAa4ABIn2r4uAEgABrgAEifavi4ASAAGuAASJ9q+LgBIAAa4ABIn2r4uAEgABrgAEifavi4ASAAGuAAc5esT6wCjVJSl5EciU4ZFrJ2X0edzqjvRWy1FsRYEFyaY/q78mjxeGWrI5NxYsWPFfGjRHRIkRyue9y2uc5c6qqrpUy08QAAAAAAAAAAAAAAAHt3o09JavfRnr3CrTVaO6kyykq2HN5REeqQKdBRdC/wAL0zq16Z0X1RVRajt3kXy0VEy8VEoVfqgTRtJoVJTsx4DlRI9DjInxQYrfyuT2VLFS1FNMvdAACRPtXxcAJAADXAAJE+1fFwA9a5R8jWS3K6yXQ8pdR5XWFspjLSKGlNhdrunqli2WWWtXzatqLYlqZgLtXapVVqjQmy6qtW5XJ6KxOy2DQKJDgMRP5MREA9iAAJE+1fFwAxVa6g1Hr1Qny6udUJPPKM9OysOYUKHHSz9O2i2fYD5SywdVvkCr5Cj06oD6dUWavRXM/COWkUJXf9UCItqJ/Q5v8iYuuf3SK6CmX3o4LHmlY6vJOqtQ3fDPpQjo1Ga3yWK2ztwV/rSz0VSYuvnkigAAAAAAAAAAAAAAAAAAAAAAAAA6DdAXp9RKnRKBkTy2Tdz5C9W0eSTukPtWgKuZsCM5f3Pk1y+DQvw+GypY68Q4kONDbFhRGvY9qOa5q2o5F0Ki+aGmXkBIn2r4uAEgABrgAEifavi4ASAAGuAASJ9q+LgBIAAa4ABIn2r4uAEgABrgAEifavi4ASAAGuAAAAACRPtXxcAJAADXAAJE+1fFwAkAANcAAkT7V8XACQAA1wACRPtXxcAJAADXAAJE+1fFwAkAANcBzs6wzrDIVQIUwyG5DZwyJWaI11Hnc7o70VssaqWOgQXJpj+SuTwf1eGWrI5KRYsWPFfHjxHxIkRyve96qrnOVbVVVXSqmWniAAAAAAAAAAAAAAAAAAPbvRp6S1e+jPXuFWmq0d1JllJVsObyiI9UgU6Ci6F/hemdWv0ovqiqi1HeTIflwqB0gqgUHKHk8mraVQqUiNjwHKiR6FHRPigxm/lensqWKlqKimmW/AkT7V8XACQAA1wACRPtXxcAJAADXAAJE+1fFwAkAANVSKNR6ZR4lFpcCHHgRmqyJDiNRzHtVLFRUXMqL6Ac8umP1W1XK6QKdlE6OdDo8krAiOj0qriKjKFTl0r3HlAiL/D4F/6dJLFlcnp5I5zVmcUyr9YZXSZdMpfGdR6VRKTDWHFgxGrYrXNXOioZafwgAAAAAAAAAAAAAAAAAAAAAAAADo11eXWGxKlxJdkLy6Tlz6vvVtGkU9pL7Vl6rmbR47l0wfJrl8Ghfh8NlSx1khxIcaG2LCiNex7Uc1zVtRyLoVF80NMpU+1fFwAkAANcAAkT7V8XACQAA1wACRPtXxcAJAADXAAJE+1fFwAkAANcAAkT7V8XACQAA1wAABIv7Y9/kAv7Y9/kA+d/R7nF2rfb0AXDtm5zAXDtm5zAX9se/wAgF/bHv8gHzv6Pc4u1b7egC4ds3OYC4ds3OYC/tj3+QC/tj3+QD539HucXat9vQBcO2bnMBcO2bnMBf2x7/IBf2x7/ACAfO/o9zi7Vvt6ALh2zc5gLh2zc5gL+2Pf5AL+2Pf5APnf0e5xdq329AFw7ZucwFw7ZucwOfnWAdYmlSaNMMiWRGYM/xLFa6jzqd0eJ2klrVSx0GCqfv10K78n9XhlqyOTcWLFjxXx48R8SJEcr3veqq5zlW1VVV0qplp4gAAAAAAAAAAAAAAAAAAAA9ydF7pQ1/wCi5X+FW2qcd1KldKVsKcSeLEVIFPgIuhf4YiZ1a9M6L6oqotR3KyL9IaomXiolCr/UCkNpNCpKdmPAdERI1DjonxQYrbPhcnsqWKlqKaZbv539HucXat9vQBcO2bnMBcO2bnMBf2x7/IBf2x7/ACAfO/o9zi7Vvt6ALh2zc5gLh2zc5gL+2Pf5AL+2Pf5APnf0e5xdq329AFw7ZucwFw7ZucwF/bHv8gF/bHv8gPkbpzdCKS9J2r9Jr5USX0aWZRpPR7YURLGsnENqLZR4y5vjsRUY9dC5lzaJYsrizNZVMpFM6XJZzQY9Cp9BjPo9Jo0disiQYrFVHMc1c6KioqWGWn8oAAAAAAAAAAAAAAAAAAAAAAAAA6K9X11iNIqMkvyH5b5m6kSByto8jndJifFL1XM2jx3LbbB8muXwaF+Hw2Vmx1ShxIdYIbYsJ7WMYiOa5q9tIiO0Ki5s2Y0jyuHbNzmAuHbNzmAv7Y9/kAv7Y9/kA+d/R7nF2rfb0AXDtm5zAXDtm5zAX9se/wAgF/bHv8gHzv6Pc4u1b7egC4ds3OYC4ds3OYC/tj3+QC/tj3+QD539HucXat9vQBcO2bnMBcO2bnMBf2x7/IBf2x7/ACAfO/o9zi7Vvt6ALh2zc5gLh2zc5gL+2Pf5AL+2Pf5AL+2Pf5ASAAFeQ6xh4gVwAGRAAV5DrGHiBXAAZEABXkOsYeIFcABkQAFeQ6xh4gVwAGRAAV5DrGHiBXA52dYZ1hkKoMKYZDchs4bErNEa6jzud0d6K2WNVLHQILk0x10K5PB/V4ZasjkpFixY8V8aNEdEiRHK573La5zlzqqqulTLTxAAAAAAAAAAAAAAAAAAAAAAAe3ejT0lq99GevcKtNVo7qTLKSrYc3lER6pBp0BF0L/C9M6tfpRfVFVFqO6PR5y0VEy8VEhV/qDM20mhUlGNjwHKiRqHGRF7UGK38rk9lSxUtRTTL2kAAyIACvIdYw8QK4ADIgAK8h1jDxArgAMiAAryHWMPEDnH1rXRCgUyXxOk5k/laMpVG7EKtdGgM/5sLM1lNsT8zczXr5p2XeSksWVyyMtAAAAAAAAAAAAAAAAAAAAAAAAAA6K9Xd1gqVGpFCyIZcJu50hpCso0knlIfasvdobAjuX9yttjXL4NC/D4bKzY60w4kONDbFhPa9j0RzXNW1HIuhUXzQ0jyAyIACvIdYw8QK4ADIgAK8h1jDxArgAMiAAryHWMPECuAAyIACvIdYw8QK4ADIgAAAABXkOsYeIFcABkQAFeQ6xh4gVwAGRAAV5DrGHiBXAAZEABXkOsYeIFcABkQAFeQ6xh4gfAfWGdYZCqBCmGQ7IbOGRKzRGuo87ndHfa2WNXM6BBcmmOuhXJ4P6vDLVkclIsWLHivjx4j4kSI5Xve9VVznKtqqqrpVTLTxAAAAAAAAAAAAAAAAAAAAAAAAAHuTovdKGv/Rcr/CrZVOO6lSulK2FOJPFeqQKfARdC/wAMRLVVr9KL6oqotR3dyH5cKgdIKoFByh5PJq2lUKlIjY8B6okehR0T4oMZv5Xp7KlipaimmW/AyIACvIdYw8QK4ADIgAK8h1jDxArgAMiAAryHWMPED+meSWV1kk1Oq/PKFCpkumVHiUSlUeK21kWE9qte1U9FRVQD88vSlyH0/o85cay5MqSkR1DodI/ESuM9P+fQYvxQXW+ao1eyv/U1xlqPU5FAAAAAAAAAAAAAAAAAAAAAAAAAB0a6vLrDYlS4kuyF5dJy59X3ubRpFPaS+1Zeq5m0eO5dMHya5fBoX4fDZUsdZIcSHGhtiwojXse1HNc1bUci6FRfNDTLJgAK8h1jDxArgAMiAAryHWMPECuAAyIACvIdYw8QK4ADIgAK8h1jDxArgAMiAAAa4ABIn2r4uAEgABrgAEifavi4ASAAGuAASJ9q+LgBIAAa4ABIn2r4uAEgABrgAHOXrE+sBo1SkpeRHIlOGRaydl9Hnc6o70VstRbEWBBcmmP6uTwf1eGWrI5NxYsWPFfGjRHRIkRyue9y2uc5c6qqrpUy08QAAAAAAAAAAAAAAAAAAAAAAAAAAAdjuq5yU/4E6OyVzpkFzKfXmmvmC2+VFhKsKAn3se7GhqM19iFRrgAEifavi4ASAAGuAASJ9q+LgBIAAa4ABIn2r4uAEgDnh1umSWHT6qVUyzy+jJ+IlVJWSTF7UzrAi2vgqv8AS9r0/wD5CVY5eGWgAAAAAAAAAAAAAAAAAAAAAAAAAAOg3QF6fUSp0SgZE8tk3c+QvVtHkk7pD7VoCrmbAjOXTB8muXwaF+Hw2VLHXiHEhxobYsKI17HtRzXNW1HIuhUXzQ0y8gJE+1fFwAkAANcAAkT7V8XACQAA1wACRPtXxcAJAADXAAJE+1fFwAkAANcAAAAAEifavi4ASAAGuAASJ9q+LgBIAAa4ABIn2r4uAEgABrgAEifavi4ASAAGuA52dYZ1hkKoMKYZDchs4ZErNEa6jzud0d9rZY1UsdAguTTHVMyuTwf1eGWrI5KRYsWPFfHjxHxIkRyve96qrnOVbVVVXSqmWniAAAAAAAAAAAAAAAAAAAAAAAAAAAD/AHl9CjzKn0aXUVqujUqMyBDanm5zkRE91A/RTk4qnRKh5P6uVLoMNrIEjlVFoDURP/jhNaq/dUVfubYaIDXAAJE+1fFwAkAANcAAkT7V8XACQAA1wACRPtXxcAJAHpvpiVGh5Q+jPlBq6sFIkZsmjU+jpZaqRqN/x2Kn3h2fclHBEy2AAAAAAAAAAAAAAAAAAAAAAAAAAAA6NdXl1hsSpcSXZC8uk5c+r73No0intJfasvVczaPHcumD5Ncvg0L8PhsqWOskOJDjQ2xYURr2PajmuatqORdCovmhplKn2r4uAEgABrgAEifavi4ASAAGuAASJ9q+LgBIAAa4ABIn2r4uAEgABrgAACRf2x7/ACAX9se/yAfO/o9zi7Vvt6ALh2zc5gLh2zc5gL+2Pf5AL+2Pf5APnf0e5xdq329AFw7ZucwFw7ZucwF/bHv8gF/bHv8AIB87+j3OLtW+3oAuHbNzmAuHbNzmAv7Y9/kAv7Y9/kA+d/R7nF2rfb0AXDtm5zAXDtm5zA599YD1iaVKo0wyJZEZgxKyRWuo86ndHidpJa1UsdBguT9+uhXfk/q8MtWRycixYseK+PHiPiRIjle971VXOcq2qqqulVMtPEAAAAAAAAAAAAAAAAAAAAAAAAAAAAD2T0apAytPSEycVfit7UOm1nlrHpZb8P4hir/6RSpX6ILh2zc5mmS4ds3OYC/tj3+QC/tj3+QD539HucXat9vQBcO2bnMBcO2bnMBf2x7/ACAX9se/yAfO/o9zi7Vvt6ALh2zc5gLh2zc5gL+2Pf5AL+2Pf5APnf0e5xdq329AFw7ZucwP4Z7VGHNpHMZXFpSOZTKJGo7mqzMqPYrVTT+oH5rZpRPwEypdB/8A7ePEhf8A2uVOBht/MAAAAAAAAAAAAAAAAAAAAAAAAAAAAB0V6vrrEaRUa78h+W+ZupEgcraPI53SYnxS9VzNo8dy22wfJrl8Ghfh8NlZsdUocSHWCG2LCe1jGIjmuavbSIjtCoubNmNI8rh2zc5gLh2zc5gL+2Pf5AL+2Pf5APnf0e5xdq329AFw7ZucwFw7ZucwF/bHv8gF/bHv8gHzv6Pc4u1b7egC4ds3OYC4ds3OYC/tj3+QC/tj3+QD539HucXat9vQBcO2bnMBcO2bnMBf2x7/ACAX9se/yAX9se/yAkAAK8h1jDxArgAMiAAryHWMPECuAAyIACvIdYw8QK4ADIgAK8h1jDxArgc7OsM6wyFUGFMMhuQ2cMiVmiNdR53O6O9FbLGrmdAguTTHXQrvyf1eGWrI5KRYsWPFfGjRHRIkRyue9y2uc5c6qqrpUy08QAAAAAAAAAAAAAAAAAAAAAAAAAAAAAHujoXRIcPpXZK3RbOz/iahp91dYn/sqV+hg0yAZEABXkOsYeIFcABkQAFeQ6xh4gVwAGRAAV5DrGHiBXA8YiojHKuhEUD8zFcHsiVtncSH4HTGkub/ACWK6ww2kAAAAAAAAAAAAAAAAAAAAAAAAAAAAAAOivV3dYL/AIGpFCyIZcJw50gpCso0knlIfasvdobAjuX9yttjXL4NC/D4bKzY60w4kONDbFhRGvY9qOa5q2o5F0Ki+aGkeQGRAAV5DrGHiBXAAZEABXkOsYeIFcABkQAFeQ6xh4gVwAGRAAAAACvIdYw8QK4ADIgAK8h1jDxArgAMiAAryHWMPECuAAyIACvIdYw8QPgPrDOsMhVBhTDIbkNnDIlZYjXUedzujvRWyxqpY6BBcmmP5K5PB/V4ZasjkpFixY8V8ePEdEiRHK973qquc5VtVVVdKmWniAAAAAAAAAAAAAAAAAAAAAAAAAAAAAAAbrINWJtUcttQqzxH9hksrJLqS9y+TG0hiuX2tCP0ioqKiKi2optl/wBAyIACvIdYw8QK4ADIgAK8h1jDxArgAMiAAryHWMPECuBBr7PINWKjVirJSXoyFKpVS6a9yrZYkOC56/2A/NDSY76VSYtJieOM90R381W1TDb/ADAAAAAAAAAAAAAAAAAAAAAAAAAAAAAAAOjXV5dYbEqXEl2QvLpOXPq+9zaNIp7SX2rL1XM2jx3Lpg+TXL4NC/D4bKljrJDiQ40NsWFEa9j2o5rmrajkXQqL5oaZZMABXkOsYeIFcABkQAFeQ6xh4gVwAGRAAV5DrGHiBXAAZEAAA1wACRPtXxcAJAADXAAJE+1fFwAkAANcAAkT7V8XACQAA1wADnJ1ifWA0apSUvIjkSnDYtZEa+jzudUd6K2WotiOgQXJpj/xOTwaPF4Zasjk5FixY8V8aNEdEiRHK573La5zlzqqqulTLTxAAAAAAAAAAAAAAAAAAAAAAAAAAAAAAAAHlDiPhRGxYbla9io5qppRU0KB+hPILXyBlOyMVLr3AiI9ZvJqNGjLbbZGRiNip9ntcn2NxhvQNcAAkT7V8XACQAA1wACRPtXxcAJAADXAAJE+1fFwAkAfO3WAZQIeT7oq1zpDY/d0qeQGSOi2LYrnUh3ZfZ/KH3i/YlI4bGWwAAAAAAAAAAAAAAAAAAAAAAAAAAAAAAAAdBugL0+olTolAyJ5bJu58heraPJJ3SH2rQFXM2BGcumD5Ncvg0L8PhsrNjrxDiQ40NsWFEa9j2o5rmrajkXQqL5oaR5ASJ9q+LgBIAAa4ABIn2r4uAEgABrgAEifavi4ASAAGuAAAAACRPtXxcAJAADXAAJE+1fFwAkAANcAAkT7V8XACQAA1wHOzrDOsMhVBhTDIbkNnDIlZYjXUedzyjvtbLEXM6BBcmmPZmVyeDR4vDLVkclIsWLHivjx4j4kSI5Xve9VVznKtqqqrpVTLTxAAAAAAAAAAAAAAAAAAAAAAAAAAAAAAAAAAB1a6pfLFCrBk2nuRqZUpFp1WKUswoDHLndQo6/Gifo2Lbb/APuIajNffBUa4ABIn2r4uAEgABrgAEifavi4ASAAGuAASJ9q+LgBIA9NdKvo3yTpOZL4tR5hM40tmFDjfj5TTGOVWQaU1rmt7xieNio5UXzS21M6Es0jiBlWyU15yK15mOTzKHJYstm8tidlzXJayMxfDFhu0PhuTOjk/vahltkQAAAAAAAAAAAAAAAAAAAAAAAAAAAAAAAAA6NdXl1hsSpcSXZC8uk5c+r73No0intJfasvVczaPHcumD5Ncvg0L8PhsqWOskOJDjQ2xYURr2PajmuatqORdCovmhplKn2r4uAEgABrgAEifavi4ASAAGuAASJ9q+LgBIAAa4AAAkX9se/yAX9se/yAfO/o9zi7Vvt6ALh2zc5gLh2zc5gL+2Pf5AL+2Pf5APnf0e5xdq329AFw7ZucwFw7ZucwF/bHv8gF/bHv8gHzv6Pc4u1b7egC4ds3OYC4ds3OYHPvrAesUSpdGmGRLIhMGJWSK11HnU7o8TtJLWqljoEFyfv10K78nl8XhlqyOTkWLFjxXx48R0SJEcr3vetrnOXOqqq6VMtPEAAAAAAAAAAAAAAAAAAAAAAAAAAAAAAAAAAAD2p0Ystsw6P2Wir+UajOiOoVHjfhprAZpj0GJY2K2zzVE+JP+prSo/QLV5ZPWqRS+s1X53CpssmtGh0yiUiElrIsKI1HNci2+aKhplQv7Y9/kAv7Y9/kA+d/R7nF2rfb0AXDtm5zAXDtm5zAX9se/wAgF/bHv8gHzv6Pc4u1b7egC4ds3OYC4ds3OYC/tj3+QC/tj3+QD539HucXat9vQBcO2bnMBcO2bnMD0H0uujFUbpV1HWVTWgw5ZWiWsc6STxiWxKO9c/dxLEtfBculvlpTPpliy44e5UMl1dcjtdZhUGv0miy6bS5/Zc1yWsisXwxYbtD2OTOjk/vahlWUCgAAAAAAAAAAAAAAAAAAAAAAAAAAAAAAAA6K9X11iNIqNd+Q/LfM3UiQOVtHkc7pMT4peq5m0eO5bbYPk1y+DQvw+Gys2OqUOJDrBDbFhPaxjERzXNXtpER2hUXNmzGkeVw7ZucwFw7ZucwF/bHv8gF/bHv8gHzv6Pc4u1b7egC4ds3OYC4ds3OYC/tj3+QC/tj3+QD539HucXat9vQBcO2bnMBcO2bnMBf2x7/IBf2x7/IBf2x7/ICQAAryHWMPECuAAyIACvIdYw8QK4ADIgAK8h1jDxArgc6+sM6wyFUKFMMhuQ2cNiVliNdR55PKO+1ssauZ0CC5NMfyc5PBoT4vDm1ZHJWLFiR4j40aI6JEiOVz3uW1XKudVVV0qRp4gAAAAAAAAAAAAAAAAAAAAAAAAAAAAAAAAAAAAAHTDqsemXR5O+B0Z8pc2SHRaREV1VKbHfY2HFctrqE5V0I5VV0P9VVvm0srNjpEaQAryHWMPECuAAyIACvIdYw8QK4ADIgAK8h1jDxArgAMiB6M6V3RRqV0n6lLLJm2HLqzS5jnSactZa+A9c/dxLM74Tl0t8tKZ9MsWVxLyoZL665Ha6zCoNfpPEl02lz+y5rs7IrPyxYbtD2OTOjk/vahlWUCgAAAAAAAAAAAAAAAAAAAAAAAAAAAAAAAA6K9Xd1gv+BqRQsiGXCcOdIKQrKNJJ5SH2rL3aGwI7l/crbY1y+DQvw+Gys2OtMOJDjQ2xYURr2PajmuatqORdCovmhpHkBkQAFeQ6xh4gVwAGRAAV5DrGHiBXAAZEAAAAAK8h1jDxArgAMiAAryHWMPECuAAyIACvIdYw8QPgLrDOsMhVChTDIbkNnDIlZYjXUeeTyjvRWyxqpY6BBcmmP5K5PBo8XhzasjkrFixY8V8ePEdEiRHK973ra5zlzqqqulSNPEAAAAAAAAAAAAAAAAAAAAAAAAAAAAAAAAAAAAAAAecCPGo0aHSaNGfCiwnI+HEY5WuY5FtRUVM6Ki+YHWDoIdPyX5SKFQMkGWabQqJW6jsbR5ZNo70bDm7UzNY9VzNpFn2f8A1Zl1KzY+7yoryHWMPECuAAyIACvIdYw8QK4ADIgAK8h1jDxArgAMiAA9NdJ3oi1H6VlRqTKpq2HLa0Sxivkk7bDtfR4i2r3cSzO+C5bO03y0pnTPLFlxxAyrZKa85Fa8zHJ5lDksWWzeWxOy5rs7IzF8MWG7Q+G5M6OT+9qGWmRAAAAAAAAAAAAAAAAAAAAAAAAAAAAAAAAADo11eXWGxKlxJdkLy6Tlz6vvc2jSKe0l9qy9VzNo8dy6YPk1y+DQvw+GypY6yQ4kONDbFhRGvY9qOa5q2o5F0Ki+aGmWTAAV5DrGHiBXAAZEABXkOsYeIFcABkQAADXAAJE+1fFwAkAANcAAkT7V8XACQAA1wADnJ1inWAUapaUvIhkSnDYtZEa+jzudUd6K2WotiOgQXJpj+TnJ4NHi8MtWRycixYkeI+NGiOiRIjlc97ltVyrnVVVdKmWniAAAAAAAAAAAAAAAAAAAAAAAAAAAAAAAAAAAAAAAAADyhxIkGI2LCiOY9jkc1zVsVqpoVF8lA6HdD/rT57UOj0LJ50ifxk9kUFGwKJWGEixKdQ2JmRI7dMdiJ+ZPjRP4iypY6cSLKFUjKdV2X1syf1ol0+lNKRyw6VQo6RG25vhdZna5PNrkRU80NMv6gAGuAASJ9q+LgBIAAa4ABIn2r4uAEgABrgAEifavi4AfOvSu6KVSuk/UpZZM2w5dWaXMc6TTlrLX0d65+7iWZ3wnLpb5aUz6ZYsriXlQyX11yO11mFQa/SeJLptLn9lzXZ2RWL4YsN2h7HJnRyf3tQy0ygAAAAAAAAAAAAAAAAAAAAAAAAAAAAAAAAAdBugL0+olTolAyJ5bJu58heraPJJ3SH2rQFXM2BGcumD5Ncvg0L8PhsrNjrxDiQ40NsWFEa9j2o5rmrajkXQqL5oaR5ASJ9q+LgBIAAa4ABIn2r4uAEgABrgAAAAAkT7V8XACQAA1wACRPtXxcAJAADXAc6+sM6wyFUKFMMhuQ2cNiVliNdR55PKO+1ssauZ0CC5NMfyc5PBo8XhzasjkrFixY8V8ePEdEiRHK973ra5zlzqqqulSNPEAAAAAAAAAAAAAAAAAAAAAAAAAAAAAAAAAAAAAAAAAAAAA2OTPLDlNyOzps/ya1zmUipdqLESjRf8AhRk9IkNbWPT9HIpUd2ujjXmf5S8hVSK+1piwYk3nkngUymPgw0hsdFcmdUamZP5Goy9jga4ABIn2r4uAEgABqYNKo1IfFh0ekQoroD+7itY9FWG+xF7LrNC2Ki2L5KgH+oEifavi4ASAAGuAASJ9q+LgBIA9GdK7opVK6T9SllkzbCl1ZpcxzpNOWw7XwHrn7uJZnfCculvlpTPpliyuJ2VfJTXnIrXmZZPMocliy2by2J2XNdnZGYvhiwnaHw3JnRyf3tQy0yIAAAAAAAAAAAAAAAAAAAAAAAAAAAAAAAAAdGury6w2JUuJLsheXScufV96to0intJfasvVczaPHcumD5Ncvg0L8PhsqWOskOJDjQ2xYURr2PajmuatqORdCovmhplKn2r4uAEgABrgAEifavi4ASAAGuAAAJF/bHv8gF/bHv8AIB87+j3OLtW+3oAuHbNzmAuHbNzmAv7Y9/kAv7Y9/kA+d/R7nF2rfb0AXDtm5zAXDtm5zA59dYB1iiVLo0wyJZEJgxKyRWuo86nlHidpJa1czoEFyfv/ACV35PL4vDLVkcnYsWLHivjx4jokSI5Xve9bXOcudVVV0qZaeIAAAAAAAAAAAAAAAAAAAAAAAAAAAAAAAAAAAAAAAAAAAAAAAd/uhVJu/wCihktjfiuz26uUZbOzozL+pqMPddw7Zucyhf2x7/IBf2x7/IB87+j3OLtW+3oAuHbNzmAuHbNzmBywyy9Mau/Rc6ftepvL2xZjVSavlrZ3InRfgjNShQU72Eq5mRmpodZnTMubRnernHSbJnlqqXleqZL6+1CpsKZSiZQ+1DiMfY6G780OI2y1j2rmVq6DSNT87+j3OLtW+3oAuHbNzmAuHbNzmAv7Y9/kAv7Y9/kA+d/R7nF2rfb0AXDtm5zAXDtm5zA9B9LroxVF6VdR1lU1oMOWVolrHOkk8YlsSjvXP3cSxLXwXLpb5aUsXTLFlxw9yo5Lq65HK6zCoNfpNFl02lz+y5rktZFYvhiw3aHscmdHJ/e1DKsoFAAAAAAAAAAAAAAAAAAAAAAAAAAAAAAAAB0V6vrrEaRUa78h+W+ZupEgcraPI53SYnxS9VzNo8dy22wfJrl8Ghfh8NlZsdUocSHWCG2LCe1jGIjmuavbSIjtCoubNmNI8rh2zc5gLh2zc5gL+2Pf5AL+2Pf5APnf0e5xdq329AFw7ZucwFw7ZucwF/bHv8gF/bHv8gF/bHv8gJAACvIdYw8QK4ADIgAK8h1jDxArgc6+sM6wyFUKFMMhuQ2cNiVliNdR55PKO+1ssauZ0CC5NMfyc5PBoT4vDm1ZHJWLFiRoj40aI6JEiOVz3uW1XKudVVV0qRp4gAAAAAAAAAAAAAAAAAAAAAAAAAAAAAAAAAAAAAAAAAAAAAAAA/Qj0Iv2SclX+W6L/ZTUYe7yjIgAK8h1jDxArgAOCnWM/tf14/7D/RwTNaiF0TellXPov1zSnUF0WZVWmURrZzJnPsbGbo72FbmZGamhfPQubQLHcjIrlMqZleqXRq+1CnMKZSiZQ2vhxG5nQ3Z+1DiN0se1cytXQaZewAAGRAAV5DrGHiBXAAZED0Z0reilUrpP1KWWTRsOXVmlzHOk05ay19Heufu4lmd8Fy6W+WlM+mWLK4l5Ucl1dcjldZhUGv0niS6bS5/Zc12dkVn5YsN2h7HJnRyf3tQyrKBQAAAAAAAAAAAAAAAAAAAAAAAAAAAAAAAAdFeru6wX/A1IoWQ/LhN3OkFIVlGkk8pD7Vl7tDYEdy/uVtsa5fBoX4fDZUsdaYcSHGhtiwojXse1HNc1bUci6FRfNDTLyAyIACvIdYw8QK4ADIgAAAABXkOsYeIFcABkQAFeQ6xh4gfAXWGdYZCqFCmGQ3IbOGxKyxGuo88nlHfa2WNXM6BBcmmP5Ocng0J8XhzasjkrFixY8V8ePEdEiRHK973ra5zlzqqqulSNPEAAAAAAAAAAAAAAAAAAAAAAAAAAAAAAAAAAAAAAAAAAAAAAAAAD9CPQi/ZJyVf5bov9lNRh7vKMiAAryHWMPECuAA4KdYz+1/Xj/sP9HBM1qPmoivoDogdL+u/RTrukwl6xZnVOaRGNnckc+xsZiZu9hW5mRmpoXQuhc2ipZrupktypVIyy1IluULJ7O4Mzk8zh9uHEYtj4b/zQojdLIjVzK1c6KaZawDIgAK8h1jDxArgAMiAA9NdJ3oi1H6VlRqTKZqkOW1oljFfI522Ha+jxFtXu4lmd8Fyonab5aUzpnliy44gZVslNeciteZlk8yhyWLLZvLYnZc12dkZi+GLCdofDcmdHJ/e1DLTIgAAAAAAAAAAAAAAAAAAAAAAAAAAAAAAAAB0a6vLrDYlS4kuyF5dJy59X3ubRpFPaS+1Zeq5m0eO5dMHya5fBoX4fDZUsdZIcSHGhtiwojXse1HNc1bUci6FRfNDTLJgAK8h1jDxArgAMiAAAa4ABIn2r4uAEgABrgAHOPrFOsBo1TEpeRDIlOGxaxo19Hnc6o77Wy1FsR0CC5NMfyc5PBo8XhlqyOTsWLEjRHxo0R0SJEcrnvctquVc6qqrpUy08QAAAAAAAAAAAAAAAAAAAAAAAAAAAAAAAAAAAAAAAAAAAAAAAAAAHevoZfsrZMP8ALtG/spqMPc5RrgAEifavi4ASAAHE3rLv2zq+/wDj/wDRQTNaj5fIoB736J3Sxrn0X65pT6A6LMqrTKI1s5kzn2MjM0d7DtzMjNTQvnoXNoqO2WTLKbUzK/UyXV9qFOYUylEyh9qHEbmfDf8AmhxG6WPauZWroNMva4ACRPtXxcAJAADXAAJE+1fFwA+delb0UqldJ+pSyuZthS6s0uY50mnLYdr6O9c/dxLM74Ll0t8tKZ9MsWVxLyo5Lq65HK6zCoNfpPEl02lz+y5rs7IrF8MWG7Q9jkzo5P72oZaZQAAAAAAAAAAAAAAAAAAAAAAAAAAAAAAAAAOg3QF6fUSp0SgZE8tk3c+QvVtHkk7pD7VoCrmbAjOXTB8muXwaF+Hw2Vmx14hxIcaG2LCiNex7Uc1zVtRyLoVF80NI8gJE+1fFwAkAANcAAAAAEifavi4ASAAGuA519YZ1hkKoUKYZDchs4bErLEa6jzyeUd9rZY1czoEFyaY/k5yeDQnxeHNqyOSsWLFjxXx48R0SJEcr3vetrnOXOqqq6VI08QAAAAAAAAAAAAAAAAAAAAAAAAAAAAAAAAAAAAAAAAAAAAAAAAAAADvX0Mv2VsmH+XaN/ZTUYe5yjXAAJE+1fFwAkAAOJvWXftnV9/8AH/6KCZrUfL5FAAHvfondLGufRfrmlPoDosyqtMojWzmTOfYyMzR3sO3MyM1NC+ehc2io7uZLMqdR8s1R5blCyezuFM5PM4fbhxGLY+E/80KI3SyI1cytXQaZa0CRPtXxcAJAADXAAJE+1fFwAkAejOlb0UqldJ+pTpZM2wpdWaXMc6TTlrLX0d+nu4lmd8Jy6W+WlM+mWLK4nZV8lFeciteZjk8yhyWLLZxLYnZc12dkZi+GLCdofDcmdHJ/e1DLTIgAAAAAAAAAAAAAAAAAAAAAAAAAAAAAAAAB0a6vLrDYlS4kuyF5dJy59X3q2jSKe0l9qy9VzNo8dy6YPk1y+DQvw+GypY6yQ4kONDbFhRGvY9qOa5q2o5F0Ki+aGmUqfavi4ASAAGuAAAJF/bHv8gF/bHv8gHzv6Pc4u1b7egC4ds3OYC4ds3OYHPrrAesUSplGmGRLIhMGJWOK11HnU7o8TtJLWrmdAguT9+uhXfk8vi8MtWRydixYseK+PHiOiRIjle971tc5y51VVXSplp4gAAAAAAAAAAAAAAAAAAAAAAAAAAAAAAAAAAAAAAAAAAAAAAAAAAAADv8AdCqTd/0UMlsb8V2e3VyjLZ2dGZf1NRh7ruHbNzmUL+2Pf5AL+2Pf5APnf0e5xdq329AFw7ZucwFw7ZucwOGHWR0j8T0xq9xux2O1+AzW26lBM1qPmUigAAB7/wCiD0vq8dFOu6TGXLFmlVJnEa2dyR0SxkdmjvYVuZkZqaHeaZlzaKmO4OTLLXUvK/UyXV9qFTYUylEyh9qHEZEsdDf+aHEbZax7VzK1dBplqfnf0e5xdq329AFw7ZucwFw7ZucwF/bHv8gF/bHv8gHzv6Pc4u1b7egC4ds3OYC4ds3OYHoPpddGKovSrqOsqm1BhyytEtY50knbEtiUd65+7iWJa+C5dLfLSmfTLFlxw9yo5Lq65HK6zCoNfpNFl02lz+y5rktZFYvhiw3aHscmdHJ/e1DKsoFAAAAAAAAAAAAAAAAAAAAAAAAAAAAAAAAB0V6vrrEaRUZJfkOy3zN1IkDlbR5FO6TE+KXquZtHjuW22D5Ncvg0L8PhsrNjqlDiQ6wQ2xYT2sYxEc1zV7aREdoVFzZsxpHlcO2bnMBcO2bnMBf2x7/IBf2x7/IBf2x7/ICQAAryHWMPECuBzr6wzrDIdQocwyG5DZw2JWWI11Hnk8o77UliLmdAguTTH8nOTwaE+Lwy1ZHJWLFiRoj40aI6JEiOVz3uW1XKudVVV0qZaeIAAAAAAAAAAAAAAAAAAAAAAAAAAAAAAAAAAAAAAAAAAAAAAAAAAAAAAfoR6EX7JOSr/LdF/spqMPd5RkQAFeQ6xh4gVwAHBTrGf2v68f8AYf6OCZrUfNRFAAAAB736JvSyrn0X65pT6AsWZVWmURrZzJnPsbGbo72HbmZGamhfPQubRUs13JyKZTamZX6l0evtQpzCmUomUNrocRq2Phuz9qHEbpY9q5laug0y9gAAMiAAryHWMPECuAAyIHozpW9FKpXSfqUssmjYcurLLmOdJpy2Ha+jvXP3cSzO+E5dLfLSmfTLFlfKuSfqcW05v4vK3lbcxWdlX0KQUS3Tbm7+N/L/AOMYa+lqqdVx0P6tMZ+NqVM5/FbZbEmk2jO7S/0wlY3/ANDDW+ovQV6IlDZ3cHIFVZyJ5xYD4i+7nKoxNZCZdBTolzWG6HHyJSOD2ks7VGdGgKn8uw9Bi69X1y6qvoz1hhRFq4+slWY7rey6iTDv4bV/ojI5VTEgw1825SeqIyvyiDSZhkorjKK2wIGdKHS0/AUtUz5m2q6G5c3m5pMXXxjlDyV5Rsk06dV7KRUubVep7VWyFTqM6GkRPVjvC9P1aqoQZUKAAAAAAAAAAAAAAAAAAAAAAAAADor1d/WCpUWPQ8iGXGbudIKQrKNJJ5SH2rL3aGwI7l/crbY1y+DQvw+GypY60w4kONDbGgxGvhvajmuatqORdCovmhpl5AZEAAAAAK8h1jDxA+AusM6wyFUOFMMhuQ2cNiVliNdR55PKO+1ssauZ0CC5NMfyc5PBoT4vDLVkclYsWLHivjx4jokSI5Xve9bXOcudVVV0qZaeIAAAAAAAAAAAAAAAAAAAAAAAAAAAAAAAAAAAAAAAAAAAAAAAAAAAAAAAP0I9CL9knJV/lui/2U1GHu8oyIACvIdYw8QK4ADgp1jP7X9eP+w/0cEzWo+aiKAAAAAB7/6IHS+rv0U68JMZcsWZ1UmkRjZ3JHPsbHYmbvYVuZkZqaF0LoXNosSx3UyW5UqkZZqkS3KFk9ncKZyeZw+3DiMWx8J/5oURulkRq5laug0y1oGRAAV5DrGHiBXAAZEABXkOsYeIFcABkQAFeQ6xh4gfxV9ycVDyo1fj1Wyh1Tls/ldIRUdR6dAbERF/iaq52O9HNVFT1A5idLHqn5tVqDTK9dGyNSJvL4aOjR6s0l/apcFulfw0Rf8Amon8Dvj9FcuYziyucdLolLl9KjUGnUaLRqTR3rDiwYrFY+G9FsVrmrnRUXyUjT/IAAAAAAAAAAAAAAAAAAAAAAAAAdGery6w2JUqJLsheXScufV97m0aRT2kvtWXKuZtHjuXTB8muXwaF+Hw2VLHWWHEhxobY0GI18N7Uc1zVtRyLoVF80NMsmAAAa4ABzj6xTrAaNUv8XkQyJThsWsaNfR53OqO9FbLUWxHQILk0xvJzk8GjxeGWrI5OxYsSNEfGjRHRIkRyue9y2q5VzqqqulTLTxAAAAAAAAAAAAAAAAAAAAAAAAAAAAAAAAAAAAAAAAAAAAAAAAAAAAAAAAA719DL9lbJh/l2jf2U1GHuco1wACRPtXxcAJAADib1l37Z1ff/H/6KCZrUfL5FAAAAAAAe9+id0sq59F+uaU+gOizKq0yiNbOZM6JYyMzR3sO3MyM1NC+ehc2ipY7ZZM8plTMr1TJdX2oU5hTKUTKH2ocRuZ8N35ocRulj2rmVq6DTL2uAAkT7V8XACQAA1wACRPtXxcAJAADXAAJE+1fFwAkAAPmPpydX7VfpEyul1+yeUWiyXKNRoavSI1EhwJwjU/5UezMkTybF06EdamiWLK4s1hq9PKpzynVZrLK6TLZrLI76NS6JSGKyJBitWxzXIplpPAAAAAAAAAAAAAAAAAAAAAAAAAHQXoC9PqJU6JQMieWybufIXq2jySd0h9q0BVzNgRnLpg+TXL4NC/D4bKzY68w4kONDbFhRGvY9qOa5q2o5F0Ki+aGkeQAAB8K9ZN024uRCr65HMmUzRleZ9Ru1TaZCd8Uoob0s7SekaIlvZ/hba7SrSWrI41xYsWPFfHjxXxIkRyve97lVznKtqqqrpVTLTxAAAAAAAAAAAAAAAAAAAAAAAAAAAAAAAAAAAAAAAAAAAAAAAAAAAAAAAAAAd6+hl+ytkw/y7Rv7KajD3OUa4ABIn2r4uAEgABxN6y79s6vv/j/APRQTNaj5fIoAAAAAAAB736JvSyrn0X65pT6A6LMqrTKI1s5kzn2NjN0d7DtzMitTQvnoXNoqWO7mS3KlUjLNUiW5Qsns7hTOTzOH24cRi2Phv8AzQojdLIjVzK1c6GmWtAkT7V8XACQAA1wACRPtXxcAJAADXAAJE+1fFwAkAANcB8H9Zd0K6PldqpSct+TiUtSutX6OsSZUeAz4ptQmJauZNMaGiWtXS5qK3yaSxZXG9UVFsVDLQAAAAAAAAAAAAAAAAAAAAAAAAAOlvVqdPKlSynS3o65ZJysSX0hW0arE3pMS1aPEXM2hxXL+RdENy+Ffh0KlllZsdUzSAHqzLnl4keQ7JVWHKbPqI10KT0VXwIKxLFpFJd8MGEmbS56tT+Vq+QH58soFe6yZTa6zmv1b6e+mTee0uJTKVFcv5nL4UTya1LGonkiIhhtnwAAAAAAAAAAAAAAAAAAAAAAAAAAAAAAAAAAAAAAAAAAAAAAAAAAAAAAAAAADv8AdCqTd/0UMlsb8V2e3VyjLZ2dGZf1NRh7ruHbNzmUL+2Pf5AL+2Pf5APnf0e5xdq329AFw7ZucwFw7ZucwOGHWR0j8T0xq9xux2O1+AzW26lBM1qPmUigAAAAAAAAD3/0Qel/Xjop13SYS5Ys0qpM4jWzqSPiWMjt0d7CtzMjNTQ7zTMubRUdwcmWWupeV+pkur7UKmwplKJlD7UOIyJY6G/80OI2y1j2rmVq6DTLU/O/o9zi7Vvt6ALh2zc5gLh2zc5gL+2Pf5AL+2Pf5APnf0e5xdq329AFw7ZucwFw7ZucwF/bHv8AIBf2x7/IB87+j3OLtW+3oAuHbNzmAuHbNzmAv7Y9/kB/xZ6ipYtCtRf+vkBxN6x7o4wMieWaJW2q8s/DVSru6JT6JDYn/DotLttjwEzWIlqo9qejrPyma1HySRQAAAAAAAAAAAAAAAAAAAAAAAA8ocSJBiNiwnuY9io5rmrYrVTQqL5KB296vPpaxsveR9kjrVGSk1xqe2HQZk90Sx9LgWWQaSqWZ1ciK1y/xNVfzGpWa+qr+2Pf5FRyy63TLDFjzWquQ+WUpUg0WEs+mrGu8UR3ah0drv5NSI7E0zVjnGRoAAAAAAAAAAAAAAAAAAAAAAAAAAAAAAAAAAAAAAAAAAAAAAAAAAAAAAAAAAAP0I9CL9knJV/lui/2U1GHu8oyIACvIdYw8QK4ADgp1jP7X9eP+w/0cEzWo+aiKAAAAAAAAAAH1t1bGU7KrVrpBSfJ9Uqk/iZFWaI6+5fHVVgNgQ2K51JbZ4IjETMqabUauZc1iV2zkOsYeJplXAAZEABXkOsYeIFcABkQAFeQ6xh4gVwAGRAAej+mtkPhZdejZW6SUaiJGnUjhJPJOqNtf+Io7XucxP64fbZ/NyehKscHVSzMploAAAAAAAAAAAAAAAAAAAAAAAAAHvvoQ5ao+RDpDVcnkelrCk05jJJpu1V+FaPHcjUev9D+w/CvqWJXddFRUtRbUU0y4LdM2vUTKH0nMoE/79YsCFNokuoy22okGjIkFqJ+n/DVfuZrUeliKAAAAAAAAAAAAAAAAAAAAAAAAAAAAAAAAAAAAAAAAAAAAAAAAAAAAAAAAAAAH6EehF+yTkq/y3Rf7KajD3eUZEABXkOsYeIFcABwU6xn9r+vH/Yf6OCZrUfNRFAAAAAAAAAADot1QOTqHS6w14yqUuAjll9GgSWhvVND4q95FVP17LIaYixmuqch1jDxNIrgAMiAAryHWMPECuAAyIACvIdYw8QK4ADIgAKskY2IylQ3tRzXIiKipaipnzAfnt6VGTduSXpD1+qDAhd3RZdOo7qG2yxEo0Ve9g2YHtT7GWnqoigAAAAAAAAAAAAAAAAAAAAAAAB/1rnMcj2OVrmraippRQP0B9GSv78qGQGold48XvKTMJNASlOttVaRDTu4tv69tjjcYcC6xTOJOqwTOcRnK6JT6ZGpLlXSqverl/uYbTwAAAAAAAAAAAAAAAAAAAAAAAAAAAAAAAAAAAAAAAAAAAAAAAAAAAAAAAAAAAB3r6GX7K2TD/LtG/spqMPc5RrgAEifavi4ASAAHE3rLv2zq+/+P/0UEzWo+XyKAAAAAAAAAAHbLqmarwpF0TaNOUhI2LWGe0+mvdZnc1jmwG//AOpTUZr63n2r4uBUSAAGuAASJ9q+LgBIAAa4ABIn2r4uAEgABrgAEifavi4AcYetZqyyTdJqDOoUPstn1X6JSXKiaXw3RIK/+obTNaj40IoAAAAAAAAAAAAAAAAAAAAAAAAAO2fVTVnbTuiLLaDS4+eUzyY0Nlq6GK9sVE//AMqmozXFabUGJLJrTJbGaqRKJSIkByL5K1ytX+xlp/KAAAAAAAAAAAAAAAAAAAAAAAAAAAAAAAAAAAAAAAAAAAAAAAAAAAAAAAAAAAAO9fQy/ZWyYf5do39lNRh7nKNcAAkT7V8XACQAA4m9Zd+2dX3/AMf/AKKCZrUfL5FAAAAAAAAAADvb1c1Gh0Xoa5OUhoid7RaXFd/NaXGtNRmvfk+1fFwKiQAA1wACRPtXxcAJAADXAAJE+1fFwAkAANcAAkT7V8XADkt1wcBjcp9QKSiJ24khpDF/k2kKqf8A5KZrUc/yKAAAAAAAAAAAAAAAAAAAAAAAAADsP1UUpp1I6LtIjwmu7EStFPVv2hUdP7opqM1zR6WFTHVB6SGUOrPcLBhQp7SaRAbZm7mM7vodn6dmIhFj1MRQAAAAAAAAAAAAAAAAAAAAAAAAAAAAAAAAAAAAAAAAAAAAAAAAAAAAAAAAAAA7/dCqTd/0UMlsb8V2e3VyjLZ2dGZf1NRh7ruHbNzmUL+2Pf5AL+2Pf5APnf0e5xdq329AFw7ZucwFw7ZucwOGHWR0j8T0xq9xux2O1+AzW26lBM1qPmUigAAAAAAAAAB3L6titrKb0PKlUdsDvHUB9Oojl7ehW0uKtmj0cnuajNfT3zv6Pc4u1b7ehULh2zc5gLh2zc5gL+2Pf5AL+2Pf5APnf0e5xdq329AFw7ZucwFw7ZucwF/bHv8AIBf2x7/IB87+j3OLtW+3oAuHbNzmAuHbNzmAv7Y9/kAv7Y9/kA+d/R7nF2rfb0A5IdcRSoTMttTZGyP3j6FVrvnpZZZ3tJiWf/gZrUfApFAAAAAAAAAAAAAAAAAAAAAAAAAB3K6tmUxKldEOp8KPQl72cRKZNnKq2WpFju7C6P4GsNRmvjLrbcksWSZRqu5YaBRl/B1jod2U57UzNpdH8Cr+roTkRP8A9tSVY+AiKAAAAAAAAAAAAAAAAAAAAAAAAAAAAAAAAAAAAAAAAAAAAAAAAAAAAAAAAAAAH6EehF+yTkq/y3Rf7KajD3eUZEABXkOsYeIFcABwU6xn9r+vH/Yf6OCZrUfNRFAAAAAAAAAADrL1RtdGTXItWepMSKixpBPfxLGW50g0mE1UX/74UQ1Ga6CSHWMPEqK4ADIgAK8h1jDxArgAMiAAryHWMPECuAAyIACvIdYw8QOHvWZ13hV16X9bYdGi9uBV+FRJKxUW1EdChIsRPtEe9PsZrUfLBFAAAAAAAAAAAAAAAAAAAAAAAACrVSrczrlWeU1SksB0anzmmwaDRmNS1ViRHo1v/tQP0QVDqnQah1JkNSpY1EosiltHl8KxLLWwoaMt+9lv3NsMH0pch9C6QeRWf5PIqQ2TCJC/FymO/wDc06FasJbfJFzsX/peoo4JTqTTSrs3pshndCi0OYS6kRKLSqPFb2XworHK1zVT1RUUw2/jAAAAAAAAAAAAAAAAAAAAAAAAAAAAAAAAAAAAAAAAAAAAAAAAAAAAAAAAAAAP0I9CL9knJV/lui/2U1GHu8oyIACvIdYw8QK4ADgp1jP7X9eP+w/0cEzWo+aiKAAAAAAAAAAH2N1W+VSHUTpELU6YUlIdBrvQHy9O0ub8XD/4sH7rZEan6vQsSu0ch1jDxNMq4ADIgAK8h1jDxArgAMiAAryHWMPECuAAyIAD/Cf1xlOT2pNZa9T2M2FL5DL4swpDnLZ8EJj3Kn81ssT9VA/OdXatUxrzXGeV0m71fTZ7MKRMaQqrb8cWIr1TeMNIoUAAAAAAAAAAAAAAAAAAAAAAAAPujqr8gMauuVClZaZ5QlWTVNRYVAc9vwxplEbYip692xVd+iuYWJXWo0y1wHM7rRuhVSZ1+J6S2S6UrFpcGGi1rl9HZa6KxqWJTWNTSqIiJET0RHeTiWLK5YGWgAAAAAAAAAAAAAAAAAAAAAAAAAAAAAAAAAAAAAAAAAAAAAAAAAAAAAAAAAB3r6GX7K2TD/LtG/spqMPc5RrgAEifavi4ASAAHE3rLv2zq+/+P/0UEzWo+XyKAAAAAAAAAAFOrFY5vU+skrrXIKU6jTKT0yDTqJGaudkWG9HNX3RAP0KZIMsEjy8ZIqp5UZDEZ3c5ofapMFrrVo1KbY2NBX0Vr0cn8rF8zbDVgANcAAkT7V8XACQAA1wACRPtXxcAJAADXAAOeXW75fYFVcnkoyFyKnIk2rUv4yaNY74oMvhuTstdZo7yI1PtDd6kqxyMMtAAAAAAAAAAAAAAAAAAAAAAAABt8i+R+ueXbKNKMmlRaA6kTGaRUa6IrV7uiwU/5keIqaGMTOq/yRM6oVH6DMhmRuquQPJfI8l1UINlDlECyLHc1EfSqQ7PFjvs/M91q/oliaENMt6AA8YkOHGhugxobXse1Wua5LUci6UVPNAOSPWIdX2tQKTTct+RGUufV2kOfSJ1JKOy1Za6210eC1NMFVW1Wp4NKfD4c2LK53kaAAAAAAAAAAAAAAAAAAAAAAAAAAAAAAAAAAAAAAAAAAAAAAAAAAAAAAAAAO9fQy/ZWyYf5do39lNRh7nKNcAAkT7V8XACQAA4m9Zd+2dX3/x/+igma1Hy+RQAAAAAAAAAAAfbHVqdKmHkkry7JDXWZdzVOttJatEjRX2Q6BMlsa1yquZrIiI1jvRUYvqWJXXo0yAa4ABIn2r4uAEgABrgAEifavi4ASAAGuAyGVrKnVLItk8nWUqu1ObRpVJaO6M/OnbjP0MhQ083vdY1E9VA/PVlzyw1my85Up9lRrXFX8XOKQroUBHWsotHbmhQWf8ASxiIn6ravmZaYMigAAAAAAAAAAAAAAAAAAAAAADRZPcntb8qdb5dUaosmjTScTSKkOBAhJmRPN710NY1M6uXMiIB3U6GfQ7qj0Uqj/h2LBmlcpvDY6dzjseJUzpAg252wWro83L8S+SJqRm19FFQAkX9se/yAX9se/yA8YsKHWGG+DGhtbDa1Wua5O2kRHaUVM1qZgOVHWC9XfSMn/4/LfkRljqRV17nUieSWjw17UtVc7o8FqW2wfNzU8GlPh8ObFlc7yNAAAAAAAAAAAAAAAAAAAAAAAAAAAAAAAAAAAAAAAAAAAAAAAAAAAAAAAAO/wB0KpN3/RQyWxvxXZ7dXKMtnZ0Zl/U1GHuu4ds3OZQv7Y9/kAv7Y9/kA+d/R7nF2rfb0AXDtm5zAXDtm5zA4YdZHSPxPTGr3G7HY7X4DNbbqUEzWo+ZSKAAAAAAAAAAAAiq1Uc1VRUzoqAdZuro6bNByly+g5C8rc/bRq10GGkCSTGkuzTaC1LGwXOVf+e1EsT+NE/iRbdSs2Ogdw7ZucyoX9se/wAgF/bHv8gHzv6Pc4u1b7egC4ds3OYC4ds3OYC/tj3+QC/tj3+QD539HucXat9vQBcO2bnMBcO2bnMD+Ce17k1WJNTaw1hj0eXSyXQXUilUqkRkZDgw2parnKqZkA4p9PLpqzTpQ1wZV+rDo9ByfyCM67qM5Va6nRs6LS4qeqpajGr4Wr6qpm3WpHyiRQAAAAAAAAAAAAAAAAAAAAAABpcnOTmuWVmuUtqDUGSR5rOprFSFAgQkzIn5nvdoYxqZ3OXMiIB3A6IPQlqj0YKnon4qBM65TSE1ZxN+589PcQbVtbCav3cqWr5ImpGbX0Jf2x7/ACKhf2x7/IBf2x7/ACAkAAK8h1jDxAqRYUKPCfBjQ2xIcRqtexyWtc1cyoqLpQDkv1hnV5xaiRZhlzyGyd0SrcRzqRPJHR2Krpa5c7o8FqaYHm5qeDSnw+HNjUrnURQAAAAAAAAAAAAAAAAAAAAAAAAAAAAAAAAAAAAAAAAAAAAAAAAAAAAAAP0I9CL9knJV/lui/wBlNRh7vKMiAAryHWMPECuAA4KdYz+1/Xj/ALD/AEcEzWo+aiKAAAAAAAAAAAAB/pRaVSaFSYVModIiQKRAe2JCiwnq18N6LajmqmdFRc6KgHU3oT9aFQJhR6Bkt6S00SjU5iNo8vrXEzQo6aGsplngd9XQv5rFzrqVmx9+0WlUam0aFTKFSIVIgR2JEhRYT0ex7VS1HNVMyoqeaFR/oBXkOsYeIFcABkQAFeQ6xh4gVwMXlYyxZOMiFUqRXXKZWiiSaWwEXsrFdbFpD7M0OFDT4oj18kansmcDin0wenHXPpLTF9W5K2PIah0WL2qPLUf/AMWmuRc0akqmZV80Ynwt/Vc5m1qR8vkUAAAAAAAAAAAAAAAAAAAAAAAaXJzk5rllZrlLag1BkkeazqaxUhQIEJMyJ+Z73aGMamdzlzIiAdzehp0NKm9FOpqIiQJrXWawmrOZyrM9unuIFudkFq/dypavkiakZtfRxUZEAAAAAK8h1jDxArgeEWFCjwnwY0NsSHEarXsclrXNXMqKi6UA5B9PnoCxKkRKflqyKyh0Sr0RzqROpLR2WrLlXO6PBammD5q1PBpT4fDmxZXP4jQAAAAAAAAAAAAAAAAAAAAAAAAAAAAAAAAAAAAAAAAAAAAAAAAAAAAAP0I9CL9knJV/lui/2U1GHu8oyIACvIdYw8QK4ADgp1jP7X9eP+w/0cEzWo+aiKAAAAAAAAAAAAAAAfQXR16buWvo6PhSuSzVJ7VhrrXyKZuc+C1PPuX+KCv9Pw+rVLqY6SZFOsi6O+VaFAoFYJy+o87iWNdRJy5G0dz1/wDjpKfAqW/xdhf0LqY+uqoTOXTehxJhKZhRqbRYyNdDj0eK2JDemfOjmqqKVGgAAZEABMrBlUyb5LJXS5zlFrxJqvURqI7t0+lshK/Tma1V7T1/RqKoHxP0get9qTIYVJkPR9q3FrFMLFY2dTSG6BQoa6O1Dg5okXF2E/mTVxzOys5aMpuXCs8StuVCt1NndPfakNIzrINHYq+CFDSxkNv6NRP1tIrEkUAAAAAAAAAAAAAAAAAAAAAAAaLJ7k9rflTrfLqi1Gk0aaTiaRUhQIENMyJ5veuhrGpnVy5kRAO4fQl6INT+jBVGNY2BNK5TOFDvecKzP5r3EG3O2Ei/dypavkiakZtfTZUAMiAAAa4ABIn2r4uAEgABq4sKFHhPgxobYkOI1WvY5LWuauZUVF0oByX6wzq84tRIswy5ZDJM6JVuI51Inkjo7LXS1y53R4LU0wPNzU8GlPh8ObGpXOoigAAAAAAAAAAAAAAAAAAAAAAAAAAAAAAAAAAAAAAAAAAAAAAAAAAAB3r6GX7K2TD/AC7Rv7KajD3OUa4ABIn2r4uAEgABxN6y79s6vv8A4/8A0UEzWo+XyKAAAAAAAAAAAAAAAAAGsqRlbyn5No7aRUKv8+kLmr2uzQafEhMVf1Yi9lfugR75qx1lnS0q3CZApFdpfO4bLE//AFOVwXuVP1cxGOX3Lpjc0XrbekNCho2lVSqTHd/ElEpDLfskYaY/0m3W/dKGnQ1ZLpNUmWqqZnw5bFiOT/74yp/6GmPVNdusK6XlemRIFPywzGWwIlqLCk8GFQUsXy7UJqP3hpj0FO6wT6stPfNKxzqnzSmRFtfSKbSHxojv5ueqqRX8AAAAAAAAAAAAAAAAAAAAAAAAAA0uTnJzXLKzXKW1BqDJI81nU1ipCgQISZkT8z3u0MY1M7nLmREA7ndDToaVN6KlTEREgTWus1hNWcznsZ1XT3EC3O2C1fu5UtXyRNSM2ve0+1fFwKiQAA1wAAAAASJ9q+LgBIAAa4DwiwoUeE+DGhtiQ4jVa9jkta5q5lRUXSgHJLrEOr6/+n9JpmW7IhKHPq5SFfSJ1I6Oy1Za7S6PBammCttqtTwaU+Hw5sWVzvI0AAAAAAAAAAAAAAAAAAAAAAAAAAAAAAAAAAAAAAAAAAAAAAAAAAAO9fQy/ZWyYf5do39lNRh7nKNcAAkT7V8XACQAA4m9Zd+2dX3/AMf/AKKCZrUfL5FAAAAAAAAAAAAAAAAAAAAAAAAAAAAAAAAAAAAAAAAAAAAAAAAAaLJ9k+rflTrfLqjVGk0aaTiaRUhQIEJMyJ5veuhrGpnVy5kRAO6HQ06GlTeinU1ERIE1rrNYTVnM5Vme3T3EC3OyC1fu5UtXyRNSM2vo4qJE+1fFwAkAANcAAASL+2Pf5AL+2Pf5APnf0e5xdq329AFw7ZucwFw7ZucwF/bHv8gF/bHv8gPGLCh1hhvgxobWw2tVrmuTtpER2lFTNamYDlR1gvV30nJ/+Py35EZa6kVde51Inclo8P4paq53R4LUttg+bmp4NPh8ObFlc7yNAAAAAAAAAAAAAAAAAAAAAAAAAAAAAAAAAAAAAAAAAAAAAAAAAAHf7oVSbv8AooZLY34rs9urlGWzs6My/qajD3XcO2bnMoX9se/yAX9se/yAfO/o9zi7Vvt6ALh2zc5gLh2zc5gcMOsjpH4npjV7jdjsdr8Bmtt1KCZrUfMpFAAAAAAAAAAAAAAAAAAAAAAAAAAAAAAAAAAAAAAAAAAAAAAAA0uTnJzXLKzXKW1BqDJI81nU1ipCgQISZkT8z3u0MY1M7nLmREA7gdEHoS1R6MFT0T8VAmdcppCas4m/c+enuINq2thNX7uVLV8kTUjNr6Ev7Y9/kVC/tj3+QD539HucXat9vQBcO2bnMBcO2bnMBf2x7/IBf2x7/IBf2x7/ACAkAAK8h1jDxArgAMiAAryHWMPECpFhQo8J8GNDbEhxGq17HJa1zVzKioulAOS/WGdXnFqJFmGXPIZJ3RKtxHOpE8kdHZa6WuXO6PBammB5uang0p8PhzY1K51EUAAAAAAAAAAAAAAAAAAAAAAAAAAAAAAAAAAAAAAAAAAAAAAAAB+hHoRfsk5Kv8t0X+ymow93lGRAAV5DrGHiBXAAcFOsZ/a/rx/2H+jgma1HzURQAAAAAAAAAAAAAAAAAAAAAAAAAAAAAAAAAAAAAAAAAAAAAAaXJzk5rllZrlLag1BkkeazqaxUhQIEJMyJ+Z73aGsamdzlzIiAdzehp0NKm9FOpqIiQJrXWawmrOZyrM9unuIFudkFq/dypavkiakZtfRxUZEABXkOsYeIFcABkQAAAAAryHWMPECuAAyIACvIdYw8QK4HhFhQo8J8GNDbEhxGq17HJa1zVzKioulAOQfT56A0SpESn5asisodEq9Ec6kTqS0dlqy5VzujwWppg+atTwaU+Hw5salc/iKAAAAAAAAAAAAAAAAAAAAAAAAAAAAAAAAAAAAAAAAAAAAAAAB+hHoRfsk5Kv8ALdF/spqMPd5RkQAFeQ6xh4gVwAHBTrGf2v68f9h/o4JmtR81EUAAAAAAAAAAAAAAAAAAAAAAAAAAAAAAAAAAAAAAAAAAAAANFk+yfVvyp1vl1RqjSaNNJxNIqQoECEmZE83vXQ1jUzq5cyIgHcPoS9EGp/RgqjGsbAmlcpnCh3vOFZn817iDbnbCRfu5UtXyRNSM2vpsqAGRAAV5DrGHiBXAAZEAAA1wACRPtXxcAJAADXAAJE+1fFwAkAANXFhQo8J8GNDbEhxGq17HJa1zVzKioulAOS/WGdXnFqJFmGXPIZJ3RKtxHOpE8kdHZa6WuXO6PBammB5uang0p8PhzY1K51EUAAAAAAAAAAAAAAAAAAAAAAAAAAAAAAAAAAAAAAAAAAAAAAHevoZfsrZMP8u0b+ymow9zlGuAASJ9q+LgBIAAcTesu/bOr7/4/wD0UEzWo+XyKAAAAAAAAAAAAAAAAAAAAAAAAAAAAAAAAAAAAAAAAAAAANLk5yc1yys1yltQagySPNZ1NYqQoECEmZE/M97tDGNTO5y5kRAO5vQ06GlTeinU1ERIE1rrNYTVnM5Vme3T3EC3OyC1fu5UtXyRNSM2ve8+1fFwKiQAA1wACRPtXxcAJAADXAAAAABIn2r4uAEgABrgAEifavi4ASAAGuA8IsKFHhPgxobYkOI1WvY5LWuauZUVF0oByS6xDq+v8AUimZbsiEoc+rtIV9InUjo7LVlrtLo8FqaYK22q1PBpT4fDmxZXO8jQAAAAAAAAAAAAAAAAAAAAAAAAAAAAAAAAAAAAAAAAAAAAAd6+hl+ytkw/y7Rv7KajD3OUa4ABIn2r4uAEgABxN6y79s6vv/j/APRQTNaj5fIoAAAAAAAAAAAAAAAAAAAAAAAAAAAAAAAAAAAAAAAAAABosn2T6t+VOt8uqNUaTRppOJpFSFAgQkzInm966GsamdXLmREA7odDToaVN6KdTUREgTWus1hNWczlWZ7dPcQLc7ILV+7lS1fJE1Iza+jiokT7V8XACQAA1wACRPtXxcAJAADXAAAEi/tj3+QC/tj3+QD539HucXat9vQBcO2bnMBcO2bnMBf2x7/IBf2x7/IB87+j3OLtW+3oAuHbNzmAuHbNzmAv7Y9/kAv7Y9/kB4xYUOsMN8GNDa2G1qtc1ydtIiO0oqZrUzAcqOsF6u+k1A/H5b8iMsdSKuvc6kTyS0eH8UtVc7o8FqW2wfNzU8Gnw+HNiyud5GgAAAAAAAAAAAAAAAAAAAAAAAAAAAAAAAAAAAAAAAAAFWq1VKy13ntFqzVCRU2cTWmvSHR6HQ4LosWIv6Inl6roTzA6KdG3qj6ZOoUGsfSGrK+gMsbESr8pejoqovlGpGhujO1iL/UhcZ10nqbkyq9UCq0rqXVOGlBk8mozKJQqOnaf3cJqWIlrnKq/zVTSLNw7ZucwF/bHv8gF/bHv8gHzv6Pc4u1b7egC4ds3OYC4ds3OYHMzp/8AQRyq5TMpU+y9ZMYkCe3nDgOpciRO7pcLuoLIdsFV+GLajEXs5nZ7ERSWLK5ozKWzGT0+PK5tQaRQqbRYiwo9HpENYcSE9NLXNdYqKnoplp/OAAAAAAAAAAAAAAAAAAAAAAAAAAAAAAAAAAAAAAAAADS5OcnNcsrNcpbUGoMkjzWdTWKkKBAhJmRPzPe7QxjUzucuZEQDuB0QehLVHowVPRPxUCZ1ymkJqzib9z56e4g2ra2E1fu5UtXyRNSM2voS/tj3+RUL+2Pf5APnf0e5xdq329AFw7ZucwFw7ZucwF/bHv8AIBf2x7/IB87+j3OLtW+3oAuHbNzmAuHbNzmAv7Y9/kAv7Y9/kAv7Y9/kBIAAV5DrGHiBXAAZEABXkOsYeIFcABkQAFeQ6xh4gVIsKFHhPgxobYkOI1WvY5LWuauZUVF0oByX6wzq84tRIswy55DJO6JVuI51Inkjo7LXS1y53R4LU0wPNzU8GlPh8ObGpXOoigAAAAAAAAAAAAAAAAAAAAAAAAAAAAAAAAAAAAAAA9sdHTo15ROkrXNtV6lUNINDo6tfM5tHav4agwlXxOX8zlz9liZ1/RLVSo7NdHXotZLOjXVxsqqVKm0ibR4aNmE7pTGupdLd52u/Iy3QxuZP1XOWRnXveQ6xh4lFcABkQAFeQ6xh4gVwAGRA+d+lP0KsmXSWlMWnxqNCkVcoMNUoc9o0JO09UT4WUhqf81n8/iTyXyWWLK42ZYsjVfshVdqXUPKHJ30Kn0de1Cit+KDSoVtjYsJ+h7F900KiKlhFYgigAAAAAAAAAAAAAAAAAAAAAAAAAAAAAAAAAAAAABpcnGTiuWVmuUtqDUGSR5rOprFSFAgQkzIn5nvdoaxqZ3OXMiIB3O6GnQ0qb0U6moiJAmtdZrCas5nKsz26e4gW52wWr93Klq+SJqRm19GlRkQAFeQ6xh4gVwAGRAAV5DrGHiBXAAZEAAAAAK8h1jDxArgAMiAAryHWMPECuAAyIACvIdYw8QK4HhFhQo8J8GNDbEhxGq17HJa1zVzKioulAOQfT56A0SpESn5asisodEq9Ec6kTqS0dlqy5VzujwWppg+atTwaU+Hw5salc/iKAAAAAAAAAAAAAAAAAAAAAAAAAAAAAAAAAAAAAPaPRw6PldOkrlPl+Tmp0FYaRV7+YzB7VWDQKIip24z/AHsa3S5yohUdx8i+Rmo2QiodByf1ClraNQqI1HRo7kRY1LjqnxxorvzOcv2RLESxEQ0y3QFeQ6xh4gVwAGRAAV5DrGHiBXAAZEAB6v6RHRfqN0o8nVPqjWaDDos2oqLGks3ay2LQKRYti26XQ3WIj2eafqiKijhTlUyX1wyNV9m+TivcsdQpxJo6wYrV8ERulkWGv5mObY5q+aKYaZMKAAAAAAAAAAAAAAAAAAAAAAAAAAAAAAAAAAAAaLJ7k9rflTrfLqi1Gk0aaTiaRUhQIENMyJ5veuhrGpnVy5kRAO4fQl6INT+jBVGNY2BNK5TOFDvecKzP5r3EG3O2E1fu5UtXyRNSM2vpsqAGRAAV5DrGHiBXAAZEABXkOsYeIFcABkQAADXAAJE+1fFwAkAANcAAkT7V8XACQAA1wACRPtXxcAJAADVxYUKPCfBjQ2xIcRqtexyWtc1cyoqLpQDkx1hvV5RKjRJhlzyGSZ0SrkRzqRPJHRmWrLVXO6PBammD5uang0p8PhzY1K50kUAAAAAAAAAAAAAAAAAAAAAAAAAAAAAAAAAAB/rQ6JSphS4FAoNHfHpNJiNgwYUNtroj3LY1qJ5qqqiAdyuhR0Zpf0bsklFl9OosN1bZ61lNn1JsRXJFVPho7V/ghotn6u7S+ZqRmvrEqAEifavi4ASAAGuAASJ9q+LgBIAAa4ABIn2r4uAHxF1j3Rbg5ZMmsTKZVSXI6uFTqO+MqQm/HT5elrosFbPE5md7MSfmJVjjmZaAAAAAAAAAAAAAAAAAAAAAAAAAAAAAAAAAAAaXJzk5rllZrlLag1BkkeazqaxUhQIEJMyJ+Z73aGsamdzlzIiAdzehp0NKm9FOpqIiQJrXWawmrOZyrM9unuIFudkJq/dypavkiakZte959q+LgVEgABrgAEifavi4ASAAGuAASJ9q+LgBIAAa4AAAAAJE+1fFwAkAANcAAkT7V8XACQAA1wACRPtXxcAJAADXAeEWFDjQ3wY0NsSHEarXsclqORcyoqLpQDkp1iHV9f4BpFNy3ZEJQ51XqQr6RO5HR2WrLnW2ujwWp+5W21zU8GlPh8ObFlc7SNAAAAAAAAAAAAAAAAAAAAAAAAAAAAAAAAAAfZvVgZB4WUzLRGyjT2hd7JKhsZSoaPbayLMH2pAb+vYRHRP5taWJXYU0y1wACRPtXxcAJAADXAAJE+1fFwAkAANcAAkT7V8XACO5rXtVj2o5rksVFS1FQDhp07MhTchHSBnMpldEWDV+f/8A61KLEsayFFcvbhJ/RER7bPTsma1HzyRQAAAAAAAAAAAAAAAAAAAAAAAAAAAAAAAAaLJ7k9rflTrfLqjVFk0aaTiaRUhwIEJMyJ5veuhrGpnVy5kRAO6HQ06GlTeinU1ERIE1rrNYTVnM5Vme3T3EC3OyC1fu5UtXyRNSM2vo4qJE+1fFwAkAANcAAkT7V8XACQAA1wACRPtXxcAJAADXAAAEi/tj3+QC/tj3+QD539HucXat9vQBcO2bnMBcO2bnMBf2x7/IBf2x7/IB87+j3OLtW+3oAuHbNzmAuHbNzmAv7Y9/kAv7Y9/kA+d/R7nF2rfb0AXDtm5zAXDtm5zAX9se/wAgF/bHv8gPGJDh1hhugxobWw2tVrmuTtpER2lFTNamYDlV1gvV30ioP4/LfkRljqRV57nUieSSjw/ilyrndHgtS22D5uang0p8PhzY1K52kUAAAAAAAAAAAAAAAAAAAAAAAAAAAAAAAAHcvq5cicPJz0WqtU2kWQJlW1HVgplsP4rI2aCi5/KC2H7qajNfT1w7ZucyoX9se/yAX9se/wAgHzv6Pc4u1b7egC4ds3OYC4ds3OYC/tj3+QC/tj3+QD539HucXat9vQBcO2bnMBcO2bnMBf2x7/IBf2x7/IB87+j3OLtW+3oAuHbNzmB8LdbZkXhz7IXK8qNDRItOqbMmMjORnxfg6SqQ3WrboSIkJfupKscfzLQAAAAAAAAAAAAAAAAAAAAAAAAAAAAAAAaXJzk5rllZrlLag1BkkeazqaxUhQIEJMyJ+Z73aGMamdzlzIiAdwOiD0Jao9GCp7U/FQJnXKaQmrOJv3Pnp7iDatrYTV+7lS1fJE1Iza+hL+2Pf5FQv7Y9/kA+d/R7nF2rfb0AXDtm5zAXDtm5zAX9se/yAX9se/yAfO/o9zi7Vvt6ALh2zc5gLh2zc5gL+2Pf5AL+2Pf5APnf0e5xdq329AFw7ZucwFw7ZucwF/bHv8gF/bHv8gF/bHv8gJAACvIdYw8QK4ADIgAK8h1jDxArgAMiAAryHWMPECuAAyIACvIdYw8QKkWFDjQ3wY0NsSHEarXsclqORcyoqLpQDkx1hvV5RKjRJhlzyGSZz6uPc6kTyR0dlqy1VzujwWppg+bmp4NKfD4c2NSudJFAAAAAAAAAAAAAAAAAAAAAAAAAAAAAAFKrEkj1lrLKauUVFWNNadAoUNE09qLEaxP/AG4D9LtXJJRKtVeldXKAxGUaVUODQoLUSxEZDYjGp7NQ2wogZEABXkOsYeIFcABkQAFeQ6xh4gVwAGRAAV5DrGHiBXA9ZdJupMPKJ0e8oVTokPtumFXqb3KWWr3zIaxIap+vbY0Uj85hhsAAAAAAAAAAAAAAAAAAAAAAAAAAAAAAaXJzk5rllZrlLag1BkkeazqaxUhQIEJMyJ+Z73aGMamdzlzIiAdzehp0NKm9FOpqIiQJrXWawmrOZyrM9unuIFudsFq/dypavkiakZtfRxUZEABXkOsYeIFcABkQAFeQ6xh4gVwAGRAAV5DrGHiBXAAZEAAAAAK8h1jDxArgAMiAAryHWMPECuAAyIACvIdYw8QK4ADIgAK8h1jDxArgeEWFDjQ3wY0NsSHEarXsclqORcyoqLpQDkJ0+ugLEqVEp+WvIpKHRKvxHOpE6ktHZasuVc7o8FqaYPm5qeDSnw+HNjUrn6RQAAAAAAAAAAAAAAAAAAAAAAAAAAAAD2z0S5TDnnSbyXyyM1HQ4taZe5zV80bGa5f/AMSpX6JzTIBkQAFeQ6xh4gVwAGRAAV5DrGHiBXAAZEABXkOsYeIFcD/CnUaHTKFSKHFS1keE+G5PVHIqL/cD8y1Y6GkurDNJeiWJRqZHg2enZeqcDDaeAAAAAAAAAAAAAAAAAAAAAAAAAAAABosnuT2t+VOt8uqLUaTRppOJpFSFAgQ0zInm966GsamdXLmREA7h9CXog1P6MFUY1jYE0rlM4UO95wrM/mvcQbc7YSL93Klq+SJqRm19NlQAyIACvIdYw8QK4ADIgAK8h1jDxArgAMiAAryHWMPECuAAyIAABrgAEifavi4ASAAGuAASJ9q+LgBIAAa4ABIn2r4uAEgABrgAEifavi4ASAAGriwocaG+DGhtiQ4jVa9jktRyLmVFRdKAcmOsN6vKJUaJMMueQyTOiVciOdSZ5I6Oy10tcud0eC1NMHzc1PBpT4fDmxqVzpIoAAAAAAAAAAAAAAAAAAAAAAAAAAAD2/0QKVDofSgyYx4qojf8S0Nmf1c9Gp/7UqV3zNMgGuAASJ9q+LgBIAAa4ABIn2r4uAEgABrgAEifavi4ASAP+RHIxjnOWxERVVQPzkV2pDKZXOfUuH4Y8zpURv8AJYrl4mG0UAAAAAAAAAAAAAAAAAAAAAAAAAAAGlyc5Oa5ZWa5S2oNQZJHms6msVIUCBCTMifme92hjGpnc5cyIgHc3oadDSpvRTqaiIkCa11msJqzmcqzPbp7iBbnZBav3cqWr5ImpGbXvefavi4FRIAAa4ABIn2r4uAEgABrgAEifavi4ASAAGuAASJ9q+LgBIAAa4AAAAAJE+1fFwAkAANcAAkT7V8XACQAA1wACRPtXxcAJAADXAAJE+1fFwAkAANcB4RYUONDfBjQ2xIcRqtexyWo5FzKioulAOSnWIdX1/gGkU3LdkQlDnVepDn0idSOjstWXO0ujwWp+5W21zU8GlPh8ObGpXO0igAAAAAAAAAAAAAAAAAAAAAAAAAAafJdWL/COUuqlae12UlE6oVNcvo2HGY5f/SKEfoogxYdIgsjwXo6HEaj2uTQqKlqKbZeYGuAASJ9q+LgBIAAa4ABIn2r4uAEgABrgAEifavi4ASAMxlRrHAqhk1rVWqkREZDlMmptMVVWz/lwXOT/wBogH51osV8eK+NEW18Ryucvqqrapht4gAAAAAAAAAAAAAAAAAAAAAAAAABosnuT2t+VOt8uqLUWTRppOJpFSHAgQ0zInm966GsamdXLmREA7odDToaVN6KdTUREgTWus1hNWczlWZ7dPcQLc7YLV+7lS1fJE1Iza+jiokT7V8XACQAA1wACRPtXxcAJAADXAAJE+1fFwAkAANcAAkT7V8XACQAA1wAABIv7Y9/kAv7Y9/kA+d/R7nF2rfb0AXDtm5zAXDtm5zAX9se/wAgF/bHv8gHzv6Pc4u1b7egC4ds3OYC4ds3OYC/tj3+QC/tj3+QD539HucXat9vQBcO2bnMBcO2bnMBf2x7/IBf2x7/ACAfO/o9zi7Vvt6ALh2zc5gLh2zc5gL+2Pf5AL+2Pf5AeMSHDrDDdBjQ2thtarXNcnbSIjtKKma1MwHKrrBervpFQfx+W/IjLHUirrldSJ5JaPD+KXKud0eC1LbYPm5qeDSnw+HNjUrnaRQAAAAAAAAAAAAAAAAAAAAAAAAAAP0DdECuMHK/0bqh11bMkfSYkqhUKmp2bVbSaP8A8GKi59KuZb90NRivcdw7Zucyhf2x7/IBf2x7/IB87+j3OLtW+3oAuHbNzmAuHbNzmAv7Y9/kAv7Y9/kA+d/R7nF2rfb0AXDtm5zAXDtm5zAX9se/yAX9se/yAfO/o9zi7Vvt6ALh2zc5gfKHWaV0g5NuitPKDDmKJTq20mBI6OyyxXMe7txlTPo7uG5F/qQlWOIploAAAAAAAAAAAAAAAAAAAAAAAAAGlyc5Oa5ZWa5S2oNQZJHms6msVIUCBCTMifme92hjGpnc5cyIgHcDog9CWqPRgqeifioEzrlNITVnE37nz09xBtW1sJq/dypavkiakZtfQl/bHv8AIqF/bHv8gHzv6Pc4u1b7egC4ds3OYC4ds3OYC/tj3+QC/tj3+QD539HucXat9vQBcO2bnMBcO2bnMBf2x7/IBf2x7/IB87+j3OLtW+3oAuHbNzmAuHbNzmAv7Y9/kAv7Y9/kA+d/R7nF2rfb0AXDtm5zAXDtm5zAX9se/wAgF/bHv8gF/bHv8gJAACvIdYw8QK4ADIgAK8h1jDxArgAMiAAryHWMPECuAAyIACvIdYw8QK4ADIgAK8h1jDxAqRYUONDfBjQ2xIcRqtexyWo5FzKioulAOTHWG9XlEqNEmGXPIZJnRKuRHOpM8kdGZastVc7o8FqaYPm5qeDSnw+HNjUrnSRQAAAAAAAAAAAAAAAAAAAAAAAAAdPOpzy5woUSs/R+nNMsdGVZ/JGvdpVERlJht+yQ32fo9TUZrqIVGRAAV5DrGHiBXAAZEABXkOsYeIFcABkQAFeQ6xh4gVwONvW2Zc4VfstcvyTyWmd7LKhUdzaV2HWtdMY6I6In82MSG39FV6Ga1HwiRQAAAAAAAAAAAAAAAAAAAAAAAA0uTnJzXLKzXKW1BqDJI81nU1ipCgQISZkT8z3u0NY1M7nLmREA7m9DToaVN6KdTUREgTWus1hNWczlWZ7dPcQLc7ITV+7lS1fJE1Iza+jioyIACvIdYw8QK4ADIgAK8h1jDxArgAMiAAryHWMPECuAAyIACvIdYw8QK4ADIgAAAABXkOsYeIFcABkQAFeQ6xh4gVwAGRAAV5DrGHiBXAAZEABXkOsYeIFcABkQAFeQ6xh4gVwPCLChxob4MaG2JDiNVr2OS1HIuZUVF0oByF6fXQFiVKiU/LXkUlDn1fe51InUlo7LVl6rndHgtTTB83NTwaU+Hw5salc/CKAAAAAAAAAAAAAAAAAAAAAAAAGtyS5TKxZHco9X8plVY/dzKQU1lKhoq2NitTM+E7/pexXNX9HKEfohyP5VKr5a8m8iym1OpSRpbPKK2O1tqK+BE0RIL/R7HIrVT9DbL/QABXkOsYeIFcABkQAFeQ6xh4gVwAGRAAV5DrGHiB616V3SDknRqyMTnKHMYkJ8y7taHJaG5c9Kp70Xu22ebW53u9GtX9BR+e6fTya1nnkwrHPabEpcxmlJi0ylx4i2uixojlc9y/zVVMNv4QAAAAAAAAAAAAAAAAAAAAAAADRZPcntb8qdb5dUaosmjTScTSKkOBAhJmRPN710NY1M6uXMiIB3D6EvRBqf0YKoxrGwJpXKZwod7zhWZ/Ne4g252wkX7uVLV8kTUjNr6bKgBkQAFeQ6xh4gVwAGRAAV5DrGHiBXAAZEABXkOsYeIFcABkQAFeQ6xh4gVwAGRAAANcAAkT7V8XACQAA1wACRPtXxcAJAADXAAJE+1fFwAkAANcAAkT7V8XACQAA1wACRPtXxcAJAADVxYUONDfBjQ2xIcRqtexyWo5FzKioulAOTHWG9XlEqNEmGXPIZJnRKuRHOpM8kdHZastcud0eA1NMHzc1PBpT4fDmxqVzpIoAAAAAAAAAAAAAAAAAAAAAAAAfXnV+dMBej/XF1Q68U5/8AgSslIb3sRyqqSylrY1tIRPJi5keieSI78ueypY7f0WlUam0aFTKHSIcejx2NiwosNyOZEY5LUc1UzKiotqKhpl/qBIn2r4uAEgABrgAEifavi4ASAAGuAAZbKFWOR1QkEetFZpnAl0qlcCLSaXSo7+yyFDaiKrlX/wD63QBwp6ZvSmmvScylvmNEdGo1UpIr6NIqE/MvdqvxUiIn/wAkSxF/REa3yW3NakfPxFAAAAAAAAAAAAAAAAAAAAAAAGlyc5Oa5ZWa5S2oNQZJHms6msVIUCBCTMifme92hjGpnc5cyIgHc3oadDSpvRTqaiIkCa11msJqzmcqzPbp7iBbnZBav3cqWr5ImpGbXvefavi4FRIAAa4ABIn2r4uAEgABrgAEifavi4ASAAGuAASJ9q+LgBIAAa4ABIn2r4uAEgABrgAAAAAkT7V8XACQAA1wACRPtXxcAJAADXAAJE+1fFwAkAANcAAkT7V8XACQAA1wACRPtXxcAJAADXAeEWFDjQ3wY0NsSHEarXsclqORcyoqLpQDkp1iHV9f4BpFNy3ZEJQ51XqQr6RO5HR2WrLnaXR4LU/crbarU8GlPh8ObGpXO0igAAAAAAAAAAAAAAAAAAAAAAAB9+dAPrFI+SBtCyO5bafHpVS1ckKVzZ1sSLJ1VfA/zdR//bPK1MyWVLHXmUzaVz6WUWdSSY0an0CmwmxqNSaNFSJCjQ3JajmubmVF9UNMv459q+LgBIAAa4ABIn2r4uAEgABrgIlc661Uyd1ap1ca7T6hyaTS2EsWk0ylREYxjU8v1VdCIlqquZEUDiv06+njPOk1OFqZUpKTKcnksjKsGA/4I00iIuaPHRNDc1rIflpW1dGbWpHyERQAAAAAAAAAAAAAAAAAAAAAABosn2T6t+VOt8uqNUaTRppOJpFSFAgQkzInm966GsamdXLmREA7odDToaVN6KdTUREgTWus1hNWczlWZ7dPcQLc7ILV+7lS1fJE1Iza+jiokT7V8XACQAA1wACRPtXxcAJAADXAAJE+1fFwAkAANcAAkT7V8XACQAA1wACRPtXxcAJAADXAAAEi/tj3+QC/tj3+QD539HucXat9vQBcO2bnMBcO2bnMBf2x7/IBf2x7/IB87+j3OLtW+3oAuHbNzmAuHbNzmAv7Y9/kAv7Y9/kA+d/R7nF2rfb0AXDtm5zAXDtm5zAX9se/yAX9se/yAfO/o9zi7Vvt6ALh2zc5gLh2zc5gL+2Pf5AL+2Pf5APnf0e5xdq329AFw7ZucwFw7ZucwF/bHv8AIBf2x7/IDxiQ4dYYboMaG1sNrVa5rk7aREdpRUzWpmA5VdYL1d9IqD+Py35EZY6kVec51Inkko8P4pcq53R4LUttg+bmp4NKfD4c2NSudpFAAAAAAAAAAAAAAAAAAAAAAAAD6R6KvTryu9F+mQ5VQKR/iKp0SJ2qRIKdFXu2Wr8T6O/OsF/8rWr5tXSXUx1myCdMrIZ0nqLAo9Va0QpRPmttiSKZvbCpnaWy1GIqokVM2lir+qIXWce8rh2zc5lC4ds3OYC/tj3+QC/tj3+QD539HucXat9vQBcO2bnMD/iyJES1abucwPm3pD9YnkNyCQKTK202HWmtENFayTyqkNf3b/JI8VEVkJPVM7v+kmrjkn0lOlxle6UE+/H16m/4WTUaIrpfIqE5WUKi+i9nTEfZpe61fSxMxFx6VIoAAAAAAAAAAAAAAAAAAAAAAA0uTnJzXLKzXKW1BqDJI81nU1ipCgQISZkT8z3u0MY1M7nLmREA7gdEHoS1R6MFT0T8VAmdcppCas4m/c+enuINq2thNX7uVLV8kTUjNr6Ev7Y9/kVC/tj3+QD539HucXat9vQBcO2bnMBcO2bnMBf2x7/IBf2x7/IB87+j3OLtW+3oAuHbNzmAuHbNzmAv7Y9/kAv7Y9/kA+d/R7nF2rfb0AXDtm5zAXDtm5zAX9se/wAgF/bHv8gHzv6Pc4u1b7egC4ds3OYC4ds3OYC/tj3+QC/tj3+QD539HucXat9vQBcO2bnMBcO2bnMBf2x7/IBf2x7/ACAX9se/yAkAAK8h1jDxArgAMiAAryHWMPECuAAyIACvIdYw8QK4ADIgAK8h1jDxArgAMiAAryHWMPECuAAyIACvIdYw8QKkWFDjQ3wY0NsSHEarXsclqORcyoqLpQDkx1hvV5RajRZhlzyGSZ0SrkRzqRPJHRmWulrlzujwWppg+bmp4NKfD4c2NSudJFAAAAAAAAAAAAAAAAAAAAAAAAD/AEo9IpFEjw6TRY8SDGhOR7IkNytc1yaFRUzooH0/kc6yLpR5IIUCWrXCHWyUQOy1tCrDDWkq1iflbGRUip93Kn6F1MfXuT/rnKiU2HCgZTskc4lcbREpEnpcOlwrfVGRO7cnupdTHsyR9Zf0R5wxq0ivExlbl0sp0npCK37sa5PZRpi+7rA+iE1neLlkoKp6JQKWq+3dDTEel9aP0RqtQ6QsGtM6nERbFYygSeN8VlvnF7Cefmo0x6ayhdc/JIMOJR8leRymUmLnRlKntNbCYnovdQe0q/y7aDTHxxln6fHScy3Q48urBX+NJ5PHRWulciatCgOav5Xq1e8en6OcqfoTVx88KquVXOVVVVtVV8yKAAAAAAAAAAAAAAAAAAAAAAAAGlycZOa5ZWa5S2oNQZJHms6msVIUCBCTMifme92hjGpnc5cyIgHc7oadDSpvRTqaiIkCa11msJqzmcqzPbp7iBbnZBav3cqWr5ImpGbX0aVGRAAV5DrGHiBXAAZEABXkOsYeIFcABkQAFeQ6xh4gVwAGRAAV5DrGHiBXAAZEABXkOsYeIFcABkQAAAAAryHWMPECuAAyIACvIdYw8QK4ADIgAK8h1jDxArgAMiAAryHWMPECuAAyIACvIdYw8QK4ADIgAK8h1jDxArgeEWFDjQ3wY0NsSHEarXsclqORcyoqLpQDkL0+ugLEqXEp+WvIpKHPq+9zqROpLR2WrL1XO6PBammD5uang0p8PhzY1K5+EUAAAAAAAAAAAAAAAAAAAAAAAAAAAAAAAAAAAAAAAAAAAAAAAAAAAAAAAAA0WT7J9W/KnW+XVGqNJo00nE0ipCgQISZkTze9dDWNTOrlzIiAdw+hL0Qan9GCqMaxsCaVymcKHe84VmfzXuINudsJF+7lS1fJE1Iza+myoAZEABXkOsYeIFcABkQAFeQ6xh4gVwAGRAAV5DrGHiBXAAZEABXkOsYeIFcABkQAFeQ6xh4gVwAGRAAANcAAkT7V8XACQAA1wACRPtXxcAJAADXAAJE+1fFwAkAANcAAkT7V8XACQAA1wACRPtXxcAJAADXAAJE+1fFwAkAANXFhQ40N8GNDbEhxGq17HJajkXMqKi6UA5M9Yb1eUSo0SY5c8hkmdEq7Ec6kzyR0Zlqy1VzujwGppg+bmp4NKfD4c2NSudBFAAAAAAAAAAAAAAAAAAAAAAAAAAAAAAAAAAAAAAAAAAAAAAAAAAAAAAA0uTnJzXLKzXKW1BqDJI81nU1ipCgQISZkT8z3u0MY1M7nLmREA7m9DToaVN6KdTUREgTWus1hNWczlWZ7dPcQLc7ILV+7lS1fJE1Iza97z7V8XAqJAADXAAJE+1fFwAkAANcAAkT7V8XACQAA1wACRPtXxcAJAADXAAJE+1fFwAkAANcAAkT7V8XACQAA1wAAAAASJ9q+LgBIAAa4ABIn2r4uAEgABrgAEifavi4ASAAGuAASJ9q+LgBIAAa4ABIn2r4uAEgABrgAEifavi4ASAAGuA8IsKHGhvgxobYkOI1WvY5LUci5lRUXSgHJTrEOr6/wFSKblvyIShzqvUhX0mdyOjstWXO0ujwWp+5W21zU8GlPh8ObGpXO0igAAAAAAAAAAAAAAAAAAAAAAAAAAAAAAAAAAAAAAAAAAAAAAAAAAABosn2T6t+VOt8uqNUaTRppOJpFSFAgQkzInm966GsamdXLmREA7odDToaVN6KdTUREgTWus1hNWczlWZ7dPcQLc7ILV+7lS1fJE1Iza+jiokT7V8XACQAA1wACRPtXxcAJAADXAAJE+1fFwAkAANcAAkT7V8XACQAA1wACRPtXxcAJAADXAAJE+1fFwAkAANcAAASL+2Pf5AL+2Pf5APnf0e5xdq329AFw7ZucwFw7ZucwF/bHv8gF/bHv8gHzv6Pc4u1b7egC4ds3OYC4ds3OYC/tj3+QC/tj3+QD539HucXat9vQBcO2bnMBcO2bnMBf2x7/ACAX9se/yAfO/o9zi7Vvt6ALh2zc5gLh2zc5gL+2Pf5AL+2Pf5APnf0e5xdq329AFw7ZucwFw7ZucwF/bHv8gF/bHv8AIB87+j3OLtW+3oAuHbNzmAuHbNzmAv7Y9/kAv7Y9/kB4xIcOsEN0GNDa2G1Fa5rk7aREdpRUzWpmA5VdYL1d9IqF+Py35EZY6kVecrqRPJJR4fxS5VzujwWpbbB83NTwaU+Hw5salc7SKAAAAAAAAAAAAAAAAAAAAAAAAAAAAAAAAAAAAAAAAAAAAAAAAAAaXJzk5rllZrlLag1BkkeazqaxUhQIEJMyJ+Z73aGMamdzlzIiAdwOiD0Jao9GCp6J+KgTOuU0hNWcTfufPT3EG1bWwmr93Klq+SJqRm19CX9se/yKhf2x7/IB87+j3OLtW+3oAuHbNzmAuHbNzmAv7Y9/kAv7Y9/kA+d/R7nF2rfb0AXDtm5zAXDtm5zAX9se/wAgF/bHv8gHzv6Pc4u1b7egC4ds3OYC4ds3OYC/tj3+QC/tj3+QD539HucXat9vQBcO2bnMBcO2bnMBf2x7/IBf2x7/ACAfO/o9zi7Vvt6ALh2zc5gLh2zc5gL+2Pf5AL+2Pf5APnf0e5xdq329AFw7ZucwFw7ZucwF/bHv8gF/bHv8gF/bHv8AICQAAryHWMPECuAAyIACvIdYw8QK4ADIgAK8h1jDxArgAMiAAryHWMPECuAAyIACvIdYw8QK4ADIgAK8h1jDxArgAMiAAryHWMPECpFhQ40N8GNDbEhxGq17HJajkXSip5oByZ6w3q8olRokwy55DJM6JV2I51JnkjozLVlqrndHgNTTB83NTwaU+Hw5salc6CKAAAAAAAAAAAAAAAAAAAAAAAAAAAAAAAAAAAAAAAAAAAAAAABpcnOTmuWVmuUtqDUGSR5rOprFSFAgQkzIn5nvdoaxqZ3OXMiIB3N6GnQ0qb0U6moiJAmtdZrCas5nKsz26e4gW52QWr93Klq+SJqRm19HFRkQAFeQ6xh4gVwAGRAAV5DrGHiBXAAZEABXkOsYeIFcABkQAFeQ6xh4gVwAGRAAV5DrGHiBXAAZEABXkOsYeIFcABkQAAAAAryHWMPECuAAyIACvIdYw8QK4ADIgAK8h1jDxArgAMiAAryHWMPECuAAyIACvIdYw8QK4ADIgAK8h1jDxArgAMiAAryHWMPECuB4RYUONDfBjQ2xIcRqtexyWo5FzKioulAOQvT66AsSpcSn5a8ikoc+r73OpE6ktHZasvVc7o8FqaYPm5qeDSnw+HNjUrn4RQAAAAAAAAAAAAAAAAAAAAAAAAAAAAAAAAAAAAAAAAAAAAA0WT7J9W/KnW+XVGqNJo00nE0ipCgQISZkTze9dDWNTOrlzIiAdw+hL0Qan9GCqMaxsCaVymcKHe84VmfzXuINudsJF+7lS1fJE1Iza+myoAZEABXkOsYeIFcABkQAFeQ6xh4gVwAGRAAV5DrGHiBXAAZEABXkOsYeIFcABkQAFeQ6xh4gVwAGRAAV5DrGHiBXAAZEAAA1wACRPtXxcAJAADXAAJE+1fFwAkAANcAAkT7V8XACQAA1wACRPtXxcAJAADXAAJE+1fFwAkAANcAAkT7V8XACQAA1wACRPtXxcAJAADVxYUONDfBjQ2xIcRqtexyWo5FzKioulAOTPWG9XlEqNEmGXPIZJnRKuxHOpM8kdGZastVc7o8BqaYPm5qeDSnw+HNjUrnQRQAAAAAAAAAAAAAAAAAAAAAAAAAAAAAAAAAAAAAAAAAADS5OcnNcsrNcpbUGoMkjzWdTWKkKBAhJmRPzPe7QxjUzucuZEQDub0NOhpU3op1NRESBNa6zWE1ZzOVZnt09xAtzsgtX7uVLV8kTUjNr3vPtXxcCokAANcAAkT7V8XACQAA1wACRPtXxcAJAADXAAJE+1fFwAkAANcAAkT7V8XACQAA1wACRPtXxcAJAADXAAJE+1fFwAkAANcAAAAAEifavi4ASAAGuAASJ9q+LgBIAAa4ABIn2r4uAEgABrgAEifavi4ASAAGuAASJ9q+LgBIAAa4ABIn2r4uAEgABrgAEifavi4ASAAGuA8IsKHGhvgxobYkOI1WvY5LUci6UVPNAOSnWIdX1/gKkUzLfkPlDnVepCvpE7kdHZasudpdHgNT9yttrmp4NKfD4c2NSudpFAAAAAAAAAAAAAAAAAAAAAAAAAAAAAAAAAAAAAAAAA0WT7J9W/KnW+XVGqNJo00nE0ipCgQISZkTze9dDWNTOrlzIiAd0Ohp0NKm9FOpqIiQJrXWawmrOZyrM9unuIFudkFq/dypavkiakZtfRxUSJ9q+LgBIAAa4ABIn2r4uAEgABrgAEifavi4ASAAGuAASJ9q+LgBIAAa4ABIn2r4uAEgABrgAEifavi4ASAAGuAASJ9q+LgBIAAa4AAAkX9se/wAgF/bHv8gHzv6Pc4u1b7egC4ds3OYC4ds3OYC/tj3+QC/tj3+QD539HucXat9vQBcO2bnMBcO2bnMBf2x7/IBf2x7/ACAfO/o9zi7Vvt6ALh2zc5gLh2zc5gL+2Pf5AL+2Pf5APnf0e5xdq329AFw7ZucwFw7ZucwF/bHv8gF/bHv8gHzv6Pc4u1b7egC4ds3OYC4ds3OYC/tj3+QC/tj3+QD539HucXat9vQBcO2bnMBcO2bnMBf2x7/IBf2x7/IB87+j3OLtW+3oAuHbNzmAuHbNzmAv7Y9/kAv7Y9/kB4xIcOsEN0GNDa2G1Fa5rk7aREdpRUzWpmA5VdYL1d9IqF+Py4ZEJY6kVec51Inkko8P4pcq53R4LUttg+bmp4NKfD4c2NSudpFAAAAAAAAAAAAAAAAAAAAAAAAAAAAAAAAAAAAAADS5OcnNcsrNcpbUGoMkjzWdTWKkKBAhJmRPzPe7QxjUzucuZEQDuB0QehLVHowVPRPxUCZ1ymkJqzib9z56e4g2ra2E1fu5UtXyRNSM2voS/tj3+RUL+2Pf5APnf0e5xdq329AFw7ZucwFw7ZucwF/bHv8AIBf2x7/IB87+j3OLtW+3oAuHbNzmAuHbNzmAv7Y9/kAv7Y9/kA+d/R7nF2rfb0AXDtm5zAXDtm5zAX9se/yAX9se/wAgHzv6Pc4u1b7egC4ds3OYC4ds3OYC/tj3+QC/tj3+QD539HucXat9vQBcO2bnMBcO2bnMBf2x7/IBf2x7/IB87+j3OLtW+3oAuHbNzmAuHbNzmAv7Y9/kAv7Y9/kA+d/R7nF2rfb0AXDtm5zAXDtm5zAX9se/yAX9se/yAX9se/yAkAAK8h1jDxArgAMiAAryHWMPECuAAyIACvIdYw8QK4ADIgAK8h1jDxArgAMiAAryHWMPECuAAyIACvIdYw8QK4ADIgAK8h1jDxArgAMiAAryHWMPECpFhQ40N8GNDbEhxGq1zXJajkXSip5oByZ6w3q8olR4kwy55DJM6JV2I51JnsjozLVlyrndSIDU0wfNzU8GlPh8ObGpXOgigAAAAAAAAAAAAAAAAAAAAAAAAAAAAAAAAAAAGlyc5Oa5ZWa5S2oNQZJHms6msVIUCBCTMifme92hrGpnc5cyIgHc3oadDSpvRTqaiIkCa11msJqzmcqzPbp7iBbnZBav3cqWr5ImpGbX0cVGRAAV5DrGHiBXAAZEABXkOsYeIFcABkQAFeQ6xh4gVwAGRAAV5DrGHiBXAAZEABXkOsYeIFcABkQAFeQ6xh4gVwAGRAAV5DrGHiBXAAZEAAAAAK8h1jDxArgAMiAAryHWMPECuAAyIACvIdYw8QK4ADIgAK8h1jDxArgAMiAAryHWMPECuAAyIACvIdYw8QK4ADIgAK8h1jDxArgAMiAAryHWMPECuB4RYUONDfBjQ2xIcRqtc1yWo5F0oqeaAchen10BYlS4lPy15FJQ59X3udSJ1JaOy1Zeq53R4LU0wfNzU8GlPh8ObGpXPwigAAAAAAAAAAAAAAAAAAAAAAAAAAAAAAAAAaLJ9k+rflTrfLqjVGk0aaTiaRUhQIEJMyJ5veuhrGpnVy5kRAO4fQl6INT+jBVGNY2BNK5TOFDvecKzP5r3EG3O2Ei/dypavkiakZtfTZUAMiAAryHWMPECuAAyIACvIdYw8QK4ADIgAK8h1jDxArgAMiAAryHWMPECuAAyIACvIdYw8QK4ADIgAK8h1jDxArgAMiAAryHWMPECuAAyIAABrgAEifavi4ASAAGuAASJ9q+LgBIAAa4ABIn2r4uAEgABrgAEifavi4ASAAGuAASJ9q+LgBIAAa4ABIn2r4uAEgABrgAEifavi4ASAAGuAASJ9q+LgBIAAauLChxob4MaG2JDiNVrmuS1HIulFTzQDkz1hvV5RKjxJjlzyGSZz6uvc6kz2R0Zlqy5VzupEBqaYPm5qeDSnw+HNjUrnQRQAAAAAAAAAAAAAAAAAAAAAAAAAAAAAAA0uTnJzXLKzXKW1BqDJI81nU1ipCgQISZkT8z3u0MY1M7nLmREA7m9DToaVN6KdTUREgTWus1hNWczlWZ7dPcQLc7ILV+7lS1fJE1Iza97z7V8XAqJAADXAAJE+1fFwAkAANcAAkT7V8XACQAA1wACRPtXxcAJAADXAAJE+1fFwAkAANcAAkT7V8XACQAA1wACRPtXxcAJAADXAAJE+1fFwAkAANcAAAAAEifavi4ASAAGuAASJ9q+LgBIAAa4ABIn2r4uAEgABrgAEifavi4ASAAGuAASJ9q+LgBIAAa4ABIn2r4uAEgABrgAEifavi4ASAAGuAASJ9q+LgBIAAa4DwiwocaG+DGhtiQ4jVa5rktRyLpRU80A5KdYh1fX+AqRTMt+Q+UOdV6kK+kTuR0dlqy52l0eA1P3K22uang0p8PhzY1K52kUAAAAAAAAAAAAAAAAAAAAAAAAAAAAA0WT7J9W/KnW+XVGqNJo00nE0ipCgQISZkTze9dDWNTOrlzIiAd0Ohp0NKm9FOpqIiQJrXWawmrOZyrM9unuIFudkFq/dypavkiakZtfRxUSJ9q+LgBIAAa4ABIn2r4uAEgABrgAEifavi4ASAAGuAASJ9q+LgBIAAa4ABIn2r4uAEgABrgAEifavi4ASAAGuAASJ9q+LgBIAAa4ABIn2r4uAEgABrgAACRf2x7/ACAX9se/yAfO/o9zi7Vvt6ALh2zc5gLh2zc5gL+2Pf5AL+2Pf5APnf0e5xdq329AFw7ZucwFw7ZucwF/bHv8gF/bHv8AIB87+j3OLtW+3oAuHbNzmAuHbNzmAv7Y9/kAv7Y9/kA+d/R7nF2rfb0AXDtm5zAXDtm5zAX9se/yAX9se/yAfO/o9zi7Vvt6ALh2zc5gLh2zc5gL+2Pf5AL+2Pf5APnf0e5xdq329AFw7ZucwFw7ZucwF/bHv8gF/bHv8gHzv6Pc4u1b7egC4ds3OYC4ds3OYC/tj3+QC/tj3+QD539HucXat9vQBcO2bnMBcO2bnMBf2x7/ACAX9se/yA8YkOHWCG6DGhtbDaitc1ydtIiO0oqZrUzAcqusF6u+kVC/H5cMiEsdSKvOc6kTySUeH8UuVc7o8FqW2wfNzU8GlPh8ObGpXO0igAAAAAAAAAAAAAAAAAAAAAAAAAAaXJzk5rllZrlLag1BkkeazqaxUhQIEJMyJ+Z73aGMamdzlzIiAdwOiD0Jao9GCp6J+KgTOuU0hNWcTfufPT3EG1bWwmr93Klq+SJqRm19CX9se/yKhf2x7/IB87+j3OLtW+3oAuHbNzmAuHbNzmAv7Y9/kAv7Y9/kA+d/R7nF2rfb0AXDtm5zAXDtm5zAX9se/wAgF/bHv8gHzv6Pc4u1b7egC4ds3OYC4ds3OYC/tj3+QC/tj3+QD539HucXat9vQBcO2bnMBcO2bnMBf2x7/IBf2x7/ACAfO/o9zi7Vvt6ALh2zc5gLh2zc5gL+2Pf5AL+2Pf5APnf0e5xdq329AFw7ZucwFw7ZucwF/bHv8gF/bHv8gHzv6Pc4u1b7egC4ds3OYC4ds3OYC/tj3+QC/tj3+QD539HucXat9vQBcO2bnMBcO2bnMBf2x7/IBf2x7/IBf2x7/ICQAAryHWMPECuAAyIACvIdYw8QK4ADIgAK8h1jDxArgAMiAAryHWMPECuAAyIACvIdYw8QK4ADIgAK8h1jDxArgAMiAAryHWMPECuAAyIACvIdYw8QK4ADIgAK8h1jDxAqRYUONDfBjQ2xIcRqtc1yWo5F0oqeaAcmesN6vKJUeJMcueQyTOiVdiOdSZ7IqMy1Zcq53R4DU0wfNzU8GlPh8ObGpXOgigAAAAAAAAAAAAAAAAAAAAAAABpcnOTmuWVmuUtqDUGSR5rOprFSFAgQkzIn5nvdoaxqZ3OXMiIB3N6GnQ0qb0U6moiJAmtdZrCas5nKsz26e4gW52QWr93Klq+SJqRm19HFRkQAFeQ6xh4gVwAGRAAV5DrGHiBXAAZEABXkOsYeIFcABkQAFeQ6xh4gVwAGRAAV5DrGHiBXAAZEABXkOsYeIFcABkQAFeQ6xh4gVwAGRAAV5DrGHiBXAAZEAAAAAK8h1jDxArgAMiAAryHWMPECuAAyIACvIdYw8QK4ADIgAK8h1jDxArgAMiAAryHWMPECuAAyIACvIdYw8QK4ADIgAK8h1jDxArgAMiAAryHWMPECuAAyIACvIdYw8QK4HhFhQ40N8GNDbEhxGq1zXJajkXSip5oByF6fXQFiVLiU/LXkUlDn1fe51InUlo7LVl6rndHgtTTB83NTwaU+Hw5salc/CKAAAAAAAAAAAAAAAAAAAAAAaLJ9k+rflTrfLqjVGk0aaTiaRUhQIEJMyJ5veuhrGpnVy5kRAO4fQl6INT+jBVGNY2BNK5TOFDvecKzP5r3EG3O2Ei/dypavkiakZtfTZUAMiAAryHWMPECuAAyIACvIdYw8QK4ADIgAK8h1jDxArgAMiAAryHWMPECuAAyIACvIdYw8QK4ADIgAK8h1jDxArgAMiAAryHWMPECuAAyIACvIdYw8QK4ADIgAAGuAASJ9q+LgBIAAa4ABIn2r4uAEgABrgAEifavi4ASAAGuAASJ9q+LgBIAAa4ABIn2r4uAEgABrgAEifavi4ASAAGuAASJ9q+LgBIAAa4ABIn2r4uAEgABrgAEifavi4ASAAGriwocaG+DGhtiQ4jVa5rktRyLpRU80A5M9Yb1eUSo8SY5c8hkmdEq7Ec6kz2RUZlqy5VzujwGppg+bmp4NKfD4c2NSudBFAAAAAAAAAAAAAAAAAAAA0uTnJzXLKzXKW1BqDJI81nU1ipCgQISZkT8z3u0MY1M7nLmREA7m9DToaVN6KdTUREgTWus1hNWczlWZ7dPcQLc7ILV+7lS1fJE1Iza97z7V8XAqJAADXAAJE+1fFwAkAANcAAkT7V8XACQAA1wACRPtXxcAJAADXAAJE+1fFwAkAANcAAkT7V8XACQAA1wACRPtXxcAJAADXAAJE+1fFwAkAANcAAkT7V8XACQAA1wAAAAASJ9q+LgBIAAa4ABIn2r4uAEgABrgAEifavi4ASAAGuAASJ9q+LgBIAAa4ABIn2r4uAEgABrgAEifavi4ASAAGuAASJ9q+LgBIAAa4ABIn2r4uAEgABrgAEifavi4ASAAGuA8IsKHGhvgxobYkOI1Wua5LUci6UVPNAOSnWIdX1/gKkUzLfkPlDnVepCvpE7kdHZasudpdHgNT9yttrmp4NKfD4c2NSudpFAAAAAAAAAAAAAAAAADRZPsn1b8qdb5dUao0mjTScTSKkKBAhJmRPN710NY1M6uXMiIB3Q6GnQ0qb0U6moiJAmtdZrCas5nKsz26e4gW52QWr93Klq+SJqRm19HFRIn2r4uAEgABrgAEifavi4ASAAGuAASJ9q+LgBIAAa4ABIn2r4uAEgABrgAEifavi4ASAAGuAASJ9q+LgBIAAa4ABIn2r4uAEgABrgAEifavi4ASAAGuAASJ9q+LgBIAAa4AAAkX9se/wAgF/bHv8gHzv6Pc4u1b7egC4ds3OYC4ds3OYC/tj3+QC/tj3+QD539HucXat9vQBcO2bnMBcO2bnMBf2x7/IBf2x7/ACAfO/o9zi7Vvt6ALh2zc5gLh2zc5gL+2Pf5AL+2Pf5APnf0e5xdq329AFw7ZucwFw7ZucwF/bHv8gF/bHv8gHzv6Pc4u1b7egC4ds3OYC4ds3OYC/tj3+QC/tj3+QD539HucXat9vQBcO2bnMBcO2bnMBf2x7/IBf2x7/IB87+j3OLtW+3oAuHbNzmAuHbNzmAv7Y9/kAv7Y9/kA+d/R7nF2rfb0AXDtm5zAXDtm5zAX9se/wAgF/bHv8gHzv6Pc4u1b7egC4ds3OYC4ds3OYC/tj3+QC/tj3+QHjEhw6wQ3QY0NrYbUVrmuTtpER2lFTNamYDlV1gvV30ioX4/LhkQljqRV5znUieSSjw/ilyrndHgtS22D5uang0p8PhzY1K52kUAAAAAAAAAAAAAAA0uTnJzXLKzXKW1BqDJI81nU1ipCgQISZkT8z3u0MY1M7nLmREA7gdEHoS1R6MFT0T8VAmdcppCas4m/c+enuINq2thNX7uVLV8kTUjNr6Ev7Y9/kVC/tj3+QD539HucXat9vQBcO2bnMBcO2bnMBf2x7/IBf2x7/IB87+j3OLtW+3oAuHbNzmAuHbNzmAv7Y9/kAv7Y9/kA+d/R7nF2rfb0AXDtm5zAXDtm5zAX9se/wAgF/bHv8gHzv6Pc4u1b7egC4ds3OYC4ds3OYC/tj3+QC/tj3+QD539HucXat9vQBcO2bnMBcO2bnMBf2x7/IBf2x7/ACAfO/o9zi7Vvt6ALh2zc5gLh2zc5gL+2Pf5AL+2Pf5APnf0e5xdq329AFw7ZucwFw7ZucwF/bHv8gF/bHv8gHzv6Pc4u1b7egC4ds3OYC4ds3OYC/tj3+QC/tj3+QD539HucXat9vQBcO2bnMBcO2bnMBf2x7/IBf2x7/IBf2x7/ICQAAryHWMPECuAAyIACvIdYw8QK4ADIgAK8h1jDxArgAMiAAryHWMPECuAAyIACvIdYw8QK4ADIgAK8h1jDxArgAMiAAryHWMPECuAAyIACvIdYw8QK4ADIgAK8h1jDxArgAMiAAryHWMPECpFhQ40N8GNDbEhxGq1zXJajkXSip5oByZ6w3q8olR4kxy55DJM6JV2I51JnsiozLVlyrndHgNTTB83NTwaU+Hw5salc6CKAAAAAAAAAAAABpcnOTmuWVmuUtqDUGSR5rOprFSFAgQkzIn5nvdoaxqZ3OXMiIB3N6GnQ0qb0U6moiJAmtdZrCas5nKsz26e4gW52QWr93Klq+SJqRm19HFRkQAFeQ6xh4gVwAGRAAV5DrGHiBXAAZEABXkOsYeIFcABkQAFeQ6xh4gVwAGRAAV5DrGHiBXAAZEABXkOsYeIFcABkQAFeQ6xh4gVwAGRAAV5DrGHiBXAAZEABXkOsYeIFcABkQAAAAAryHWMPECuAAyIACvIdYw8QK4ADIgAK8h1jDxArgAMiAAryHWMPECuAAyIACvIdYw8QK4ADIgAK8h1jDxArgAMiAAryHWMPECuAAyIACvIdYw8QK4ADIgAK8h1jDxArgAMiAAryHWMPECuB4RYUONDfBjQ2xIcRqtc1yWo5F0oqeaAchen10BYlS4lPy15FJQ59X3udSJ1JaOy1Zeq53R4LU0wfNzU8GlPh8ObGpXPwigAAAAAAAAABosn2T6t+VOt8uqNUaTRppOJpFSFAgQkzInm966GsamdXLmREA7h9CXog1P6MFUY1jYE0rlM4UO95wrM/mvcQbc7YSL93Klq+SJqRm19NlQAyIACvIdYw8QK4ADIgAK8h1jDxArgAMiAAryHWMPECuAAyIACvIdYw8QK4ADIgAK8h1jDxArgAMiAAryHWMPECuAAyIACvIdYw8QK4ADIgAK8h1jDxArgAMiAAryHWMPECuAAyIAABrgAEifavi4ASAAGuAASJ9q+LgBIAAa4ABIn2r4uAEgABrgAEifavi4ASAAGuAASJ9q+LgBIAAa4ABIn2r4uAEgABrgAEifavi4ASAAGuAASJ9q+LgBIAAa4ABIn2r4uAEgABrgAEifavi4ASAAGriwocaG+DGhtiQ4jVa5rktRyLpRU80A5W9PLq1afKqVMcsfR1kjqTLoivpU3qzRmWxKMudXRqI1PEzzWEmdv5bUzJmxZXNWJDfCe6FFY5j2KrXNclioqaUVCNP8AgAAAAAAAG3yP5GMo2XaudFqLk0q7HmkxpCosRzU7MGiw7bFixomiGxPVf5JauYqO3/Q76GdR+ilVFWUdYM3rlNITb4nbodiu8+4goudkFF8tLlS1fJEsiWvec+1fFwKiQAA1wACRPtXxcAJAADXAAJE+1fFwAkAANcAAkT7V8XACQAA1wACRPtXxcAJAADXAAJE+1fFwAkAANcAAkT7V8XACQAA1wACRPtXxcAJAADXAAJE+1fFwAkAANcAAkT7V8XACQAA1wAAAAASJ9q+LgBIAAa4ABIn2r4uAEgABrgAEifavi4ASAAGuAASJ9q+LgBIAAa4ABIn2r4uAEgABrgAEifavi4ASAAGuAASJ9q+LgBIAAa4ABIn2r4uAEgABrgAEifavi4ASAAGuAASJ9q+LgBIAAa4AB8edLXq8sj+XqNErVIYTKnVxpPbdEmNBgotHpj81i0iCliOX/rbY71tJi65d5auhH0hsh8ePHn1SqRN5NCVezN5M11Koyt/iejU7cPG1P5kxdeh3Ncxytc1Uci2KipnRSK/4AAAVKt1UrNXGZw5LVOr0xnFPjKjWUag0Z8eI5V/6WoqgfaeQHqsMqFdo1GnmWmnJUyTKqPdQIatjTKM30sS1kH+blVyfwlxNdW8jeQvJdkDqrDqhkvqtRpTQ0sWPFRO3SKU9Es7caKvxRHfzzJ5IiGmW+AkT7V8XACQAA1wACRPtXxcAJAADXAAJE+1fFwAkAANcAAkT7V8XACQAA1wACRPtXxcAJAADXAAJE+1fFwAkAANcAAkT7V8XACQAA1wACRPtXxcAJAADXAAJE+1fFwAkAANcAAkT7V8XACQAA1wAAB/yxPQBYnoBJnv7r9Lfvo/2AkfdfcB919wNbYnoAsT0Akz391+lv30f7ASPuvuA+6+4GtsT0AWJ6ASZ7+6/S376P9gJH3X3AfdfcDW2J6ALE9AJM9/dfpb99H+wEj7r7gPuvuBrbE9AFiegEme/uv0t++j/AGAkfdfcB919wNbYnoAsT0Akz391+lv30f7ASPuvuA+6+4GtsT0AWJ6ASZ7+6/S376P9gJH3X3AfdfcDW2J6ALE9AJM9/dfpb99H+wEj7r7gPuvuBrbE9AFiegEme/uv0t++j/YCR919wH3X3A1tiegCxPQCTPf3X6W/fR/sBI+6+4D7r7ga2xPQBYnoBJnv7r9Lfvo/2AkKlqWLnRQPWFf+jD0f8p74keu2SartPpMS3tUptESBSFX172F2X2/cYPVlaeql6I9MZFplAk9ZpSulIdDnT1Yn8kitev8A7Ji6yUp6qTovx6a2HHp1dojFXwrNoKf2gIpMNexpR1a/RDqXEgx4eTiNOIrVt7U2mUekIv8ANiORi/8A2lw17rqlUGpFQqCktqTVGUSKioiJ3UvocOAi/wA+wiW/cqL33X3A1tiegCxPQCTPf3X6W/fR/sBI+6+4D7r7ga2xPQBYnoBJnv7r9Lfvo/2AkfdfcB919wNbYnoAsT0Akz391+lv30f7ASPuvuA+6+4GtsT0AWJ6ASZ7+6/S376P9gJH3X3AfdfcDW2J6ALE9AJM9/dfpb99H+wEj7r7gPuvuBrbE9AFiegEme/uv0t++j/YCR919wH3X3A1tiegCxPQCTPf3X6W/fR/sBI+6+4D7r7ga2xPQBYnoBJnv7r9Lfvo/wBgJH3X3AfdfcDW2J6ALE9AJM9/dfpb99H+wEj7r7gPuvuBrbE9AFiegEme/uv0t++j/YCR919wH3X3A1tiegCxPQBYnoB//9k=;" parent="1" vertex="1">
          <mxGeometry x="695" y="42.5" width="30" height="30" as="geometry" />
        </mxCell>
        <mxCell id="YrypmwiNXpWc2q6fOLhZ-19" value="&lt;font color=&quot;#3333ff&quot;&gt;Extraction /&lt;/font&gt;" style="text;html=1;align=center;verticalAlign=middle;resizable=0;points=[];autosize=1;strokeColor=none;fillColor=none;" parent="1" vertex="1">
          <mxGeometry x="180" y="330" width="80" height="30" as="geometry" />
        </mxCell>
        <mxCell id="YrypmwiNXpWc2q6fOLhZ-20" value="&lt;b style=&quot;font-size: 17px;&quot;&gt;&lt;font color=&quot;#000066&quot;&gt;GoalBet ETL Project Archtecture&lt;/font&gt;&lt;/b&gt;" style="text;html=1;align=center;verticalAlign=middle;resizable=0;points=[];autosize=1;strokeColor=none;fillColor=none;fontSize=17;" parent="1" vertex="1">
          <mxGeometry x="-190" y="30" width="290" height="30" as="geometry" />
        </mxCell>
        <mxCell id="YrypmwiNXpWc2q6fOLhZ-24" value="" style="shape=partialRectangle;whiteSpace=wrap;html=1;bottom=1;right=1;left=1;top=0;fillColor=none;routingCenterX=-0.5;" parent="1" vertex="1">
          <mxGeometry x="90" y="299" width="310" height="31" as="geometry" />
        </mxCell>
        <mxCell id="YrypmwiNXpWc2q6fOLhZ-25" value="" style="shape=partialRectangle;whiteSpace=wrap;html=1;bottom=1;right=1;left=1;top=0;fillColor=none;routingCenterX=-0.5;" parent="1" vertex="1">
          <mxGeometry x="415" y="299" width="310" height="31" as="geometry" />
        </mxCell>
        <mxCell id="YrypmwiNXpWc2q6fOLhZ-32" value="&lt;font color=&quot;#ff9933&quot;&gt;Transformation&lt;/font&gt;" style="text;html=1;align=center;verticalAlign=middle;resizable=0;points=[];autosize=1;strokeColor=none;fillColor=none;" parent="1" vertex="1">
          <mxGeometry x="254" y="330" width="100" height="30" as="geometry" />
        </mxCell>
        <mxCell id="YrypmwiNXpWc2q6fOLhZ-33" value="&lt;font color=&quot;#006600&quot;&gt;Load&lt;/font&gt;" style="text;html=1;align=center;verticalAlign=middle;resizable=0;points=[];autosize=1;strokeColor=none;fillColor=none;" parent="1" vertex="1">
          <mxGeometry x="545" y="328" width="50" height="30" as="geometry" />
        </mxCell>
        <mxCell id="Rk6XDNR9MFA3IbCtF0Jj-4" value="&lt;b&gt;Data Source&lt;/b&gt;" style="text;html=1;align=center;verticalAlign=middle;resizable=0;points=[];autosize=1;strokeColor=none;fillColor=none;" vertex="1" parent="1">
          <mxGeometry x="-165" y="193" width="90" height="30" as="geometry" />
        </mxCell>
        <mxCell id="Rk6XDNR9MFA3IbCtF0Jj-5" value="" style="sketch=0;aspect=fixed;pointerEvents=1;shadow=0;dashed=0;html=1;strokeColor=none;labelPosition=center;verticalLabelPosition=bottom;verticalAlign=top;align=center;fillColor=#00188D;shape=mxgraph.mscae.enterprise.server_directory" vertex="1" parent="1">
          <mxGeometry x="90" y="116" width="61.2" height="85" as="geometry" />
        </mxCell>
        <mxCell id="Rk6XDNR9MFA3IbCtF0Jj-9" value="" style="outlineConnect=0;dashed=0;verticalLabelPosition=bottom;verticalAlign=top;align=center;html=1;shape=mxgraph.aws3.internet_3;fillColor=#D2D3D3;gradientColor=none;" vertex="1" parent="1">
          <mxGeometry x="-165" y="155" width="37.25" height="27" as="geometry" />
        </mxCell>
        <mxCell id="Rk6XDNR9MFA3IbCtF0Jj-12" value="" style="shape=partialRectangle;whiteSpace=wrap;html=1;bottom=1;right=1;left=1;top=0;fillColor=none;routingCenterX=-0.5;" vertex="1" parent="1">
          <mxGeometry x="-140" y="299" width="230" height="31" as="geometry" />
        </mxCell>
        <mxCell id="Rk6XDNR9MFA3IbCtF0Jj-14" value="Fetch Data&amp;nbsp;" style="text;html=1;align=center;verticalAlign=middle;resizable=0;points=[];autosize=1;strokeColor=none;fillColor=none;" vertex="1" parent="1">
          <mxGeometry x="-95" y="328" width="90" height="30" as="geometry" />
        </mxCell>
        <mxCell id="Rk6XDNR9MFA3IbCtF0Jj-15" value="" style="sketch=0;aspect=fixed;pointerEvents=1;shadow=0;dashed=0;html=1;strokeColor=none;labelPosition=center;verticalLabelPosition=bottom;verticalAlign=top;align=center;fillColor=#00188D;shape=mxgraph.mscae.enterprise.server_directory" vertex="1" parent="1">
          <mxGeometry x="400" y="163" width="43.2" height="60" as="geometry" />
        </mxCell>
        <mxCell id="Rk6XDNR9MFA3IbCtF0Jj-16" style="edgeStyle=orthogonalEdgeStyle;rounded=0;orthogonalLoop=1;jettySize=auto;html=1;entryX=0;entryY=0.5;entryDx=0;entryDy=0;entryPerimeter=0;" edge="1" parent="1" target="Rk6XDNR9MFA3IbCtF0Jj-5">
          <mxGeometry relative="1" as="geometry">
            <mxPoint x="-80" y="158.5" as="sourcePoint" />
          </mxGeometry>
        </mxCell>
        <mxCell id="Rk6XDNR9MFA3IbCtF0Jj-17" value="requests" style="text;html=1;align=center;verticalAlign=middle;resizable=0;points=[];autosize=1;strokeColor=none;fillColor=none;" vertex="1" parent="1">
          <mxGeometry x="-60" y="155" width="70" height="30" as="geometry" />
        </mxCell>
        <mxCell id="Rk6XDNR9MFA3IbCtF0Jj-19" value="" style="shape=image;html=1;verticalAlign=top;verticalLabelPosition=bottom;labelBackgroundColor=#ffffff;imageAspect=0;aspect=fixed;image=https://cdn3.iconfinder.com/data/icons/dompicon-glyph-file-format-2/256/file-csv-format-type-128.png" vertex="1" parent="1">
          <mxGeometry x="-150" y="121.5" width="40" height="40" as="geometry" />
        </mxCell>
        <mxCell id="Rk6XDNR9MFA3IbCtF0Jj-20" value="" style="shape=image;html=1;verticalAlign=top;verticalLabelPosition=bottom;labelBackgroundColor=#ffffff;imageAspect=0;aspect=fixed;image=https://cdn3.iconfinder.com/data/icons/dompicon-glyph-file-format-2/256/file-csv-format-type-128.png" vertex="1" parent="1">
          <mxGeometry x="-140" y="131.5" width="40" height="40" as="geometry" />
        </mxCell>
        <mxCell id="Rk6XDNR9MFA3IbCtF0Jj-21" value="" style="shape=image;html=1;verticalAlign=top;verticalLabelPosition=bottom;labelBackgroundColor=#ffffff;imageAspect=0;aspect=fixed;image=https://cdn3.iconfinder.com/data/icons/dompicon-glyph-file-format-2/256/file-csv-format-type-128.png" vertex="1" parent="1">
          <mxGeometry x="-120" y="150" width="40" height="40" as="geometry" />
        </mxCell>
      </root>
    </mxGraphModel>
  </diagram>
</mxfile>
